# Blender 3.4.1
# www.blender.org
mtllib bed.mtl
o Cube
v 1.958593 0.888657 -3.416371
v 1.958593 0.674426 -3.416371
v 1.958593 0.888657 3.416371
v 1.958593 0.674426 3.416371
v -1.958593 0.888657 -3.416371
v -1.958593 0.674426 -3.416371
v -1.958593 0.888657 3.416371
v -1.958593 0.674426 3.416371
v 1.958593 1.754281 3.416371
v -1.958593 1.754281 3.416371
v 1.958593 1.754281 -3.416371
v -1.958593 1.754281 -3.416371
v -1.313602 1.735807 3.248446
v -1.313602 2.211952 3.240088
v -1.313602 1.735807 1.857172
v -1.313602 1.996932 1.865530
v 1.313602 1.735807 3.248446
v 1.313602 2.211952 3.240088
v 1.313602 1.735807 1.857172
v 1.313602 1.996932 1.865530
v -1.962620 1.747198 1.680083
v -1.962620 1.995891 1.680083
v -1.962620 1.747198 -3.414250
v -1.962620 1.995891 -3.414250
v 1.961713 1.747198 1.680083
v 1.961713 1.995891 1.680083
v 1.961713 1.747198 -3.414250
v 1.961713 1.995891 -3.414250
v 1.953718 0.904411 1.672259
v 1.953718 1.994897 1.672259
v 1.953718 0.904411 -3.410809
v 1.953718 1.994897 -3.415121
v 2.166052 0.904411 1.672259
v 2.166052 1.994897 1.672259
v 2.166052 0.904411 -3.410809
v 2.166052 1.994897 -3.410809
v -2.161289 0.908980 1.672259
v -2.161289 1.993746 1.672259
v -2.161289 0.908980 -3.415121
v -2.161289 1.993746 -3.415121
v -1.962725 0.908980 1.672259
v -1.962725 1.993746 1.672259
v -1.962725 0.908980 -3.415121
v -1.962725 1.993746 -3.415121
v 2.166575 0.904411 -3.409211
v 2.166575 1.994897 -3.404899
v -2.164558 0.904411 -3.414024
v -2.164558 1.994897 -3.414024
v 2.167983 0.904411 -3.607769
v 2.167983 1.994897 -3.607769
v -2.163151 0.904411 -3.616894
v -2.163151 1.994897 -3.616894
v 2.153063 0.888657 -3.416371
v 2.153063 0.674426 -3.416371
v 2.153063 0.888657 3.416371
v 2.153063 0.674426 3.416371
v 1.958593 0.674426 -3.585632
v -1.958593 0.674426 -3.585632
v 1.958593 0.888657 -3.585632
v -1.958593 0.888657 -3.585632
v 2.153063 0.888657 -3.585632
v 2.153063 0.674426 -3.585632
v -2.155651 0.674426 -3.416371
v -2.155651 0.674426 3.416371
v -2.155651 0.888657 3.416371
v -2.155651 0.888657 -3.416371
v -2.155651 0.888657 -3.585632
v -2.155651 0.674426 -3.585632
v 1.510285 0.453783 3.283080
v 1.460044 0.674522 3.333320
v 1.510285 0.453783 3.013843
v 1.460044 0.674522 2.963602
v 1.779522 0.453783 3.283080
v 1.829762 0.674522 3.333320
v 1.779522 0.453783 3.013843
v 1.829762 0.674522 2.963602
v 1.494118 0.364113 2.997676
v 1.494118 0.364113 3.299246
v 1.795688 0.364113 2.997676
v 1.795688 0.364113 3.299246
v 1.494118 0.230746 2.997676
v 1.494118 0.230746 3.299246
v 1.795688 0.230746 2.997676
v 1.795688 0.230746 3.299246
v 1.521853 0.127279 3.025411
v 1.521853 0.127279 3.271512
v 1.767954 0.127279 3.025411
v 1.767954 0.127279 3.271512
v 1.450155 0.016045 2.953713
v 1.450155 0.016045 3.343209
v 1.839651 0.016045 2.953713
v 1.839651 0.016045 3.343209
v -1.800849 0.453783 3.283080
v -1.851090 0.674522 3.333320
v -1.800849 0.453783 3.013843
v -1.851090 0.674522 2.963602
v -1.531612 0.453783 3.283080
v -1.481372 0.674522 3.333320
v -1.531612 0.453783 3.013843
v -1.481372 0.674522 2.963602
v -1.817015 0.364113 2.997676
v -1.817015 0.364113 3.299246
v -1.515446 0.364113 2.997676
v -1.515446 0.364113 3.299246
v -1.817015 0.230746 2.997676
v -1.817015 0.230746 3.299246
v -1.515446 0.230746 2.997676
v -1.515446 0.230746 3.299246
v -1.789281 0.127279 3.025411
v -1.789281 0.127279 3.271512
v -1.543180 0.127279 3.025411
v -1.543180 0.127279 3.271512
v -1.860979 0.016045 2.953713
v -1.860979 0.016045 3.343209
v -1.471482 0.016045 2.953713
v -1.471482 0.016045 3.343209
v -1.800849 0.453783 -2.963314
v -1.851090 0.674522 -2.913073
v -1.800849 0.453783 -3.232551
v -1.851090 0.674522 -3.282791
v -1.531612 0.453783 -2.963314
v -1.481372 0.674522 -2.913073
v -1.531612 0.453783 -3.232551
v -1.481372 0.674522 -3.282791
v -1.817015 0.364113 -3.248717
v -1.817015 0.364113 -2.947148
v -1.515446 0.364113 -3.248717
v -1.515446 0.364113 -2.947148
v -1.817015 0.230746 -3.248717
v -1.817015 0.230746 -2.947148
v -1.515446 0.230746 -3.248717
v -1.515446 0.230746 -2.947148
v -1.789281 0.127279 -3.220983
v -1.789281 0.127279 -2.974882
v -1.543180 0.127279 -3.220983
v -1.543180 0.127279 -2.974882
v -1.860979 0.016045 -3.292680
v -1.860979 0.016045 -2.903184
v -1.471482 0.016045 -3.292680
v -1.471482 0.016045 -2.903184
v 1.552112 0.453783 -2.963314
v 1.501871 0.674522 -2.913073
v 1.552112 0.453783 -3.232551
v 1.501871 0.674522 -3.282791
v 1.821349 0.453783 -2.963314
v 1.871589 0.674522 -2.913073
v 1.821349 0.453783 -3.232551
v 1.871589 0.674522 -3.282791
v 1.535946 0.364113 -3.248717
v 1.535946 0.364113 -2.947148
v 1.837515 0.364113 -3.248717
v 1.837515 0.364113 -2.947148
v 1.535946 0.230746 -3.248717
v 1.535946 0.230746 -2.947148
v 1.837515 0.230746 -3.248717
v 1.837515 0.230746 -2.947148
v 1.563680 0.127279 -3.220983
v 1.563680 0.127279 -2.974882
v 1.809781 0.127279 -3.220983
v 1.809781 0.127279 -2.974882
v 1.491982 0.016045 -3.292680
v 1.491982 0.016045 -2.903184
v 1.881479 0.016045 -3.292680
v 1.881479 0.016045 -2.903184
v -2.144946 0.675953 3.621831
v -2.144946 2.607765 3.621831
v -2.144946 0.675953 3.413341
v -2.144946 2.607765 3.413341
v 2.144946 0.675953 3.621831
v 2.144946 2.607765 3.621831
v 2.144946 0.675953 3.413341
v 2.144946 2.607765 3.413341
v -1.627577 3.055686 3.596687
v -1.627577 3.055686 3.438485
v 1.627577 3.055686 3.438485
v 1.627577 3.055686 3.596687
v -0.708072 3.412338 3.551998
v -0.708072 3.412338 3.483173
v 0.708072 3.412338 3.483173
v 0.708072 3.412338 3.551998
vn -0.0000 -0.0000 -1.0000
vn -0.0000 -0.0000 1.0000
vn -0.0000 -1.0000 -0.0000
vn -0.0000 1.0000 -0.0000
vn -1.0000 -0.0000 -0.0000
vn 1.0000 -0.0000 -0.0000
vn -0.0000 0.0320 -0.9995
vn -0.0000 0.0176 0.9998
vn -0.0000 0.9880 -0.1545
vn 0.0102 -0.0020 -0.9999
vn -1.0000 -0.0000 -0.0069
vn 0.0021 -0.0000 -1.0000
vn 1.0000 -0.0000 0.0070
vn -0.9751 -0.2219 -0.0000
vn -0.0000 -0.2219 -0.9751
vn 0.9751 -0.2219 -0.0000
vn -0.0000 -0.2219 0.9751
vn -0.0000 0.1774 0.9841
vn -0.0000 0.1774 -0.9841
vn -0.9841 0.1774 -0.0000
vn 0.9841 0.1774 -0.0000
vn -0.0000 -0.2589 0.9659
vn 0.8405 0.5418 -0.0000
vn -0.0000 -0.2589 -0.9659
vn 0.9659 -0.2589 -0.0000
vn -0.9659 -0.2589 -0.0000
vn -0.8405 0.5418 -0.0000
vn -0.0000 0.5418 0.8405
vn -0.0000 0.5418 -0.8405
vn 0.6545 0.7560 -0.0000
vn -0.3616 0.9323 -0.0000
vn -0.6545 0.7560 -0.0000
vn -0.0000 0.0560 0.9984
vn -0.0000 0.0560 -0.9984
vn -0.0000 0.1243 0.9922
vn -0.0000 0.1243 -0.9922
vn 0.3616 0.9323 -0.0000
vt 0.625000 0.500000
vt 0.375000 0.500000
vt 0.625000 0.750000
vt 0.375000 0.750000
vt 0.625000 0.250000
vt 0.125000 0.500000
vt 0.625000 0.000000
vt 0.625000 1.000000
vt 0.125000 0.750000
vt 0.375000 1.000000
vt 0.625000 0.750000
vt 0.875000 0.750000
vt 0.625000 1.000000
vt 0.625000 0.000000
vt 0.625000 0.500000
vt 0.875000 0.500000
vt 0.625000 0.250000
vt 0.375000 0.000000
vt 0.375000 1.000000
vt 0.125000 0.750000
vt 0.625000 0.000000
vt 0.625000 1.000000
vt 0.875000 0.750000
vt 0.375000 0.250000
vt 0.125000 0.500000
vt 0.625000 0.250000
vt 0.875000 0.500000
vt 0.375000 0.750000
vt 0.625000 0.750000
vt 0.375000 0.500000
vt 0.625000 0.500000
vt 0.375000 0.000000
vt 0.375000 1.000000
vt 0.125000 0.750000
vt 0.625000 0.000000
vt 0.625000 1.000000
vt 0.875000 0.750000
vt 0.375000 0.250000
vt 0.125000 0.500000
vt 0.625000 0.250000
vt 0.875000 0.500000
vt 0.375000 0.750000
vt 0.625000 0.750000
vt 0.375000 0.500000
vt 0.625000 0.500000
vt 0.375000 0.000000
vt 0.375000 1.000000
vt 0.125000 0.750000
vt 0.625000 0.000000
vt 0.625000 1.000000
vt 0.875000 0.750000
vt 0.375000 0.250000
vt 0.125000 0.500000
vt 0.625000 0.250000
vt 0.875000 0.500000
vt 0.375000 0.750000
vt 0.625000 0.750000
vt 0.375000 0.500000
vt 0.625000 0.500000
vt 0.125000 0.750000
vt 0.375000 1.000000
vt 0.625000 1.000000
vt 0.875000 0.750000
vt 0.125000 0.500000
vt 0.375000 0.250000
vt 0.875000 0.500000
vt 0.625000 0.250000
vt 0.375000 0.750000
vt 0.625000 0.750000
vt 0.375000 0.500000
vt 0.625000 0.500000
vt 0.375000 1.000000
vt 0.125000 0.750000
vt 0.625000 1.000000
vt 0.875000 0.750000
vt 0.375000 0.250000
vt 0.125000 0.500000
vt 0.625000 0.250000
vt 0.875000 0.500000
vt 0.375000 0.750000
vt 0.625000 0.750000
vt 0.375000 0.500000
vt 0.625000 0.500000
vt 0.625000 0.500000
vt 0.375000 0.500000
vt 0.625000 0.750000
vt 0.375000 0.750000
vt 0.375000 0.500000
vt 0.375000 0.250000
vt 0.125000 0.500000
vt 0.625000 0.500000
vt 0.625000 0.250000
vt 0.625000 0.500000
vt 0.375000 0.500000
vt 0.375000 0.250000
vt 0.125000 0.500000
vt 0.375000 0.000000
vt 0.125000 0.750000
vt 0.375000 1.000000
vt 0.625000 0.000000
vt 0.625000 1.000000
vt 0.625000 0.250000
vt 0.625000 0.250000
vt 0.125000 0.500000
vt 0.375000 0.250000
vt 0.375000 1.000000
vt 0.375000 0.000000
vt 0.625000 0.000000
vt 0.625000 1.000000
vt 0.875000 0.750000
vt 0.375000 0.250000
vt 0.625000 0.250000
vt 0.875000 0.500000
vt 0.375000 0.750000
vt 0.625000 0.750000
vt 0.375000 0.500000
vt 0.625000 0.500000
vt 0.375000 0.250000
vt 0.375000 1.000000
vt 0.375000 0.000000
vt 0.375000 0.500000
vt 0.375000 0.750000
vt 0.375000 0.250000
vt 0.375000 1.000000
vt 0.375000 0.000000
vt 0.375000 0.500000
vt 0.375000 0.750000
vt 0.375000 0.250000
vt 0.375000 0.000000
vt 0.375000 1.000000
vt 0.375000 0.500000
vt 0.375000 0.750000
vt 0.125000 0.500000
vt 0.375000 0.250000
vt 0.125000 0.750000
vt 0.375000 0.000000
vt 0.375000 1.000000
vt 0.375000 0.500000
vt 0.375000 0.750000
vt 0.375000 1.000000
vt 0.375000 0.000000
vt 0.625000 0.000000
vt 0.625000 1.000000
vt 0.375000 0.250000
vt 0.625000 0.250000
vt 0.375000 0.750000
vt 0.625000 0.750000
vt 0.375000 0.500000
vt 0.625000 0.500000
vt 0.375000 0.250000
vt 0.375000 1.000000
vt 0.375000 0.000000
vt 0.375000 0.500000
vt 0.375000 0.750000
vt 0.375000 0.250000
vt 0.375000 1.000000
vt 0.375000 0.000000
vt 0.375000 0.500000
vt 0.375000 0.750000
vt 0.375000 0.250000
vt 0.375000 0.000000
vt 0.375000 1.000000
vt 0.375000 0.500000
vt 0.375000 0.750000
vt 0.125000 0.500000
vt 0.375000 0.250000
vt 0.125000 0.750000
vt 0.375000 0.000000
vt 0.375000 1.000000
vt 0.375000 0.500000
vt 0.375000 0.750000
vt 0.375000 1.000000
vt 0.375000 0.000000
vt 0.625000 0.000000
vt 0.625000 1.000000
vt 0.375000 0.250000
vt 0.625000 0.250000
vt 0.375000 0.750000
vt 0.625000 0.750000
vt 0.375000 0.500000
vt 0.625000 0.500000
vt 0.375000 0.250000
vt 0.375000 1.000000
vt 0.375000 0.000000
vt 0.375000 0.500000
vt 0.375000 0.750000
vt 0.375000 0.250000
vt 0.375000 1.000000
vt 0.375000 0.000000
vt 0.375000 0.500000
vt 0.375000 0.750000
vt 0.375000 0.250000
vt 0.375000 0.000000
vt 0.375000 1.000000
vt 0.375000 0.500000
vt 0.375000 0.750000
vt 0.125000 0.500000
vt 0.375000 0.250000
vt 0.125000 0.750000
vt 0.375000 0.000000
vt 0.375000 1.000000
vt 0.375000 0.500000
vt 0.375000 0.750000
vt 0.375000 1.000000
vt 0.375000 0.000000
vt 0.625000 0.000000
vt 0.625000 1.000000
vt 0.375000 0.250000
vt 0.625000 0.250000
vt 0.375000 0.750000
vt 0.625000 0.750000
vt 0.375000 0.500000
vt 0.625000 0.500000
vt 0.375000 0.250000
vt 0.375000 1.000000
vt 0.375000 0.000000
vt 0.375000 0.500000
vt 0.375000 0.750000
vt 0.375000 0.250000
vt 0.375000 1.000000
vt 0.375000 0.000000
vt 0.375000 0.500000
vt 0.375000 0.750000
vt 0.375000 0.250000
vt 0.375000 0.000000
vt 0.375000 1.000000
vt 0.375000 0.500000
vt 0.375000 0.750000
vt 0.125000 0.500000
vt 0.375000 0.250000
vt 0.125000 0.750000
vt 0.375000 0.000000
vt 0.375000 1.000000
vt 0.375000 0.500000
vt 0.375000 0.750000
vt 0.375000 0.000000
vt 0.375000 1.000000
vt 0.125000 0.750000
vt 0.625000 0.000000
vt 0.625000 1.000000
vt 0.375000 0.250000
vt 0.125000 0.500000
vt 0.625000 0.250000
vt 0.375000 0.750000
vt 0.625000 0.750000
vt 0.375000 0.500000
vt 0.625000 0.500000
vt 0.625000 0.000000
vt 0.625000 1.000000
vt 0.625000 0.250000
vt 0.625000 0.500000
vt 0.625000 0.750000
vt 0.625000 0.000000
vt 0.875000 0.750000
vt 0.625000 1.000000
vt 0.875000 0.500000
vt 0.625000 0.250000
vt 0.625000 0.500000
vt 0.625000 0.750000
s 0
usemtl Material
f 1/1/1 5/5/1 12/17/1 11/15/1
f 3/3/2 4/4/2 56/87/2 55/86/2
f 5/5/4 1/1/4 59/91/4 60/92/4
f 7/8/2 3/3/2 9/11/2 10/13/2
f 17/28/8 18/29/8 14/22/8 13/19/8
f 15/25/3 19/30/3 17/28/3 13/20/3
f 21/32/5 22/35/5 24/40/5 23/38/5
f 23/38/1 24/40/1 28/45/1 27/44/1
f 27/44/6 28/45/6 26/43/6 25/42/6
f 23/39/3 27/44/3 25/42/3 21/34/3
f 29/46/5 30/49/5 32/54/5 31/52/5
f 31/52/10 32/54/10 36/59/10 35/58/10
f 31/53/3 35/58/3 33/56/3 29/48/3
f 39/65/1 40/67/1 44/71/1 43/70/1
f 43/70/6 44/71/6 42/69/6 41/68/6
f 39/64/3 43/70/3 41/68/3 37/60/3
f 47/77/3 51/82/3 49/80/3 45/73/3
f 1/1/4 3/3/4 55/86/4 53/84/4
f 1/1/4 53/84/4 61/93/4 59/91/4
f 5/5/4 60/92/4 67/103/4 66/102/4
f 7/7/4 5/5/4 66/102/4 65/100/4
f 8/10/2 7/8/2 65/101/2 64/99/2
f 73/114/18 69/106/18 78/119/18 80/122/18
f 76/117/4 72/113/4 70/110/4 74/115/4
f 97/146/18 93/140/18 102/151/18 104/154/18
f 121/178/18 117/172/18 126/183/18 128/186/18
f 136/196/28 134/194/28 138/201/28 140/203/28
f 145/210/18 141/204/18 150/215/18 152/218/18
f 160/228/28 158/226/28 162/233/28 164/235/28
f 174/250/31 173/248/31 177/253/31 178/257/31
f 168/243/32 166/239/32 173/248/32 174/250/32
f 179/258/4 178/256/4 177/254/4 180/259/4
usemtl duvet
f 25/42/2 26/43/2 22/36/2 21/33/2
f 28/45/4 24/41/4 22/37/4 26/43/4
f 35/58/6 36/59/6 34/57/6 33/56/6
f 33/56/2 34/57/2 30/50/2 29/47/2
f 36/59/4 32/55/4 30/51/4 34/57/4
f 41/68/2 42/69/2 38/62/2 37/61/2
f 44/71/4 40/66/4 38/63/4 42/69/4
f 39/65/5 37/61/5 38/63/5 40/67/5
f 47/76/11 48/78/11 52/83/11 51/82/11
f 51/82/12 52/83/12 50/81/12 49/80/12
f 49/80/13 50/81/13 46/74/13 45/72/13
f 52/83/4 48/79/4 46/75/4 50/81/4
usemtl mattress
f 11/15/4 12/16/4 10/12/4 9/11/4
f 5/5/5 7/7/5 10/14/5 12/17/5
f 3/3/6 1/1/6 11/15/6 9/11/6
f 13/18/5 14/21/5 16/26/5 15/24/5
f 15/24/7 16/26/7 20/31/7 19/30/7
f 19/30/6 20/31/6 18/29/6 17/28/6
f 20/31/9 16/27/9 14/23/9 18/29/9
usemtl wood
f 4/4/2 3/3/2 7/8/2 8/10/2
f 58/90/3 6/6/3 63/96/3 68/104/3
f 6/6/3 2/2/3 4/4/3 8/9/3
f 54/85/6 53/84/6 55/86/6 56/87/6
f 54/85/3 2/2/3 57/88/3 62/94/3
f 4/4/3 2/2/3 54/85/3 56/87/3
f 58/89/1 60/92/1 59/91/1 57/88/1
f 57/88/1 59/91/1 61/93/1 62/94/1
f 60/92/1 58/89/1 68/105/1 67/103/1
f 53/84/6 54/85/6 62/94/6 61/93/6
f 2/2/3 6/6/3 58/90/3 57/88/3
f 64/97/5 65/100/5 66/102/5 63/95/5
f 63/95/5 66/102/5 67/103/5 68/105/5
f 6/6/3 8/9/3 64/98/3 63/96/3
f 69/107/14 70/108/14 72/112/14 71/111/14
f 71/111/15 72/112/15 76/117/15 75/116/15
f 75/116/16 76/117/16 74/115/16 73/114/16
f 73/114/17 74/115/17 70/109/17 69/106/17
f 80/122/2 78/119/2 82/124/2 84/127/2
f 71/111/19 75/116/19 79/121/19 77/118/19
f 69/107/20 71/111/20 77/118/20 78/120/20
f 75/116/21 73/114/21 80/122/21 79/121/21
f 84/127/22 82/124/22 86/130/22 88/132/22
f 77/118/1 79/121/1 83/126/1 81/123/1
f 79/121/6 80/122/6 84/127/6 83/126/6
f 78/120/5 77/118/5 81/123/5 82/125/5
f 87/131/23 88/132/23 92/139/23 91/138/23
f 81/123/24 83/126/24 87/131/24 85/128/24
f 83/126/25 84/127/25 88/132/25 87/131/25
f 82/125/26 81/123/26 85/128/26 86/129/26
f 89/133/3 91/138/3 92/139/3 90/135/3
f 86/129/27 85/128/27 89/134/27 90/136/27
f 88/132/28 86/130/28 90/137/28 92/139/28
f 85/128/29 87/131/29 91/138/29 89/134/29
f 93/141/14 94/142/14 96/145/14 95/144/14
f 95/144/15 96/145/15 100/149/15 99/148/15
f 99/148/16 100/149/16 98/147/16 97/146/16
f 97/146/17 98/147/17 94/143/17 93/140/17
f 104/154/2 102/151/2 106/156/2 108/159/2
f 95/144/19 99/148/19 103/153/19 101/150/19
f 93/141/20 95/144/20 101/150/20 102/152/20
f 99/148/21 97/146/21 104/154/21 103/153/21
f 108/159/22 106/156/22 110/162/22 112/164/22
f 101/150/1 103/153/1 107/158/1 105/155/1
f 103/153/6 104/154/6 108/159/6 107/158/6
f 102/152/5 101/150/5 105/155/5 106/157/5
f 111/163/23 112/164/23 116/171/23 115/170/23
f 105/155/24 107/158/24 111/163/24 109/160/24
f 107/158/25 108/159/25 112/164/25 111/163/25
f 106/157/26 105/155/26 109/160/26 110/161/26
f 113/165/3 115/170/3 116/171/3 114/167/3
f 110/161/27 109/160/27 113/166/27 114/168/27
f 112/164/28 110/162/28 114/169/28 116/171/28
f 109/160/29 111/163/29 115/170/29 113/166/29
f 117/173/14 118/174/14 120/177/14 119/176/14
f 119/176/15 120/177/15 124/181/15 123/180/15
f 123/180/16 124/181/16 122/179/16 121/178/16
f 121/178/17 122/179/17 118/175/17 117/172/17
f 128/186/2 126/183/2 130/188/2 132/191/2
f 119/176/19 123/180/19 127/185/19 125/182/19
f 117/173/20 119/176/20 125/182/20 126/184/20
f 123/180/21 121/178/21 128/186/21 127/185/21
f 132/191/22 130/188/22 134/194/22 136/196/22
f 125/182/1 127/185/1 131/190/1 129/187/1
f 127/185/6 128/186/6 132/191/6 131/190/6
f 126/184/5 125/182/5 129/187/5 130/189/5
f 135/195/23 136/196/23 140/203/23 139/202/23
f 129/187/24 131/190/24 135/195/24 133/192/24
f 131/190/25 132/191/25 136/196/25 135/195/25
f 130/189/26 129/187/26 133/192/26 134/193/26
f 137/197/3 139/202/3 140/203/3 138/199/3
f 134/193/27 133/192/27 137/198/27 138/200/27
f 133/192/29 135/195/29 139/202/29 137/198/29
f 141/205/14 142/206/14 144/209/14 143/208/14
f 143/208/15 144/209/15 148/213/15 147/212/15
f 147/212/16 148/213/16 146/211/16 145/210/16
f 145/210/17 146/211/17 142/207/17 141/204/17
f 152/218/2 150/215/2 154/220/2 156/223/2
f 143/208/19 147/212/19 151/217/19 149/214/19
f 141/205/20 143/208/20 149/214/20 150/216/20
f 147/212/21 145/210/21 152/218/21 151/217/21
f 156/223/22 154/220/22 158/226/22 160/228/22
f 149/214/1 151/217/1 155/222/1 153/219/1
f 151/217/6 152/218/6 156/223/6 155/222/6
f 150/216/5 149/214/5 153/219/5 154/221/5
f 159/227/23 160/228/23 164/235/23 163/234/23
f 153/219/24 155/222/24 159/227/24 157/224/24
f 155/222/25 156/223/25 160/228/25 159/227/25
f 154/221/26 153/219/26 157/224/26 158/225/26
f 161/229/3 163/234/3 164/235/3 162/231/3
f 158/225/27 157/224/27 161/230/27 162/232/27
f 157/224/29 159/227/29 163/234/29 161/230/29
f 165/236/5 166/239/5 168/243/5 167/241/5
f 167/241/1 168/243/1 172/247/1 171/246/1
f 171/246/6 172/247/6 170/245/6 169/244/6
f 169/244/2 170/245/2 166/240/2 165/237/2
f 167/242/3 171/246/3 169/244/3 165/238/3
f 170/245/30 172/247/30 175/251/30 176/252/30
f 166/240/33 170/245/33 176/252/33 173/249/33
f 172/247/34 168/243/34 174/250/34 175/251/34
f 173/249/35 176/252/35 180/259/35 177/255/35
f 175/251/36 174/250/36 178/257/36 179/258/36
f 176/252/37 175/251/37 179/258/37 180/259/37
