# Blender 3.4.1
# www.blender.org
mtllib candle.mtl
o Cube
v 0.183964 0.183964 -0.183964
v 0.183964 -0.534905 -0.183964
v 0.183964 0.183964 0.183964
v 0.183964 -0.534905 0.183964
v -0.183964 0.183964 -0.183964
v -0.183964 -0.534905 -0.183964
v -0.183964 0.183964 0.183964
v -0.183964 -0.534905 0.183964
v -0.244841 -0.534905 0.000000
v 0.240001 0.183964 0.000000
v -0.244841 0.183964 0.000000
v 0.240001 -0.534905 0.000000
v 0.000000 -0.534905 -0.242388
v 0.000000 0.183964 0.253976
v 0.000000 -0.534905 0.253976
v 0.000000 0.183964 -0.242388
v -0.189208 -0.516803 0.000330
v -0.142198 -0.516803 0.142390
v -0.000138 -0.516803 -0.186846
v -0.142198 -0.516803 -0.141730
v -0.000138 -0.516803 0.196454
v 0.141922 -0.516803 0.142390
v 0.185194 -0.516803 0.000330
v 0.141922 -0.516803 -0.141730
v -0.009260 -0.516803 0.001397
v -0.007103 -0.516803 0.007917
v -0.000584 -0.516803 -0.007193
v -0.007103 -0.516803 -0.005122
v -0.000584 -0.516803 0.010398
v 0.005936 -0.516803 0.007917
v 0.007922 -0.516803 0.001397
v 0.005936 -0.516803 -0.005122
v 0.012239 -0.618165 0.001397
v 0.014397 -0.618165 0.007917
v 0.020916 -0.618165 -0.007193
v 0.014397 -0.618165 -0.005122
v 0.020916 -0.618165 0.010398
v 0.027435 -0.618165 0.007917
v 0.029421 -0.618165 0.001397
v 0.027435 -0.618165 -0.005122
vn -0.3557 -0.0000 0.9346
vn -0.9494 -0.0000 -0.3142
vn 0.9566 -0.0000 0.2914
vn 0.3027 -0.0000 -0.9531
vn 0.9566 -0.0000 -0.2914
vn -0.9494 -0.0000 0.3142
vn -0.3027 -0.0000 -0.9531
vn 0.3084 -0.9458 -0.1020
vn 0.3557 -0.0000 0.9346
vn -0.0000 1.0000 -0.0000
vn -0.0000 -1.0000 -0.0000
vn -0.3117 -0.9454 0.0949
vn 0.1136 -0.9476 -0.2985
vn -0.0979 -0.9463 0.3082
vn 0.3073 -0.9462 0.1017
vn 0.0980 -0.9461 0.3086
vn -0.1134 -0.9478 -0.2980
vn -0.3127 -0.9451 -0.0953
vn -0.9307 -0.1974 -0.3080
vn 0.3547 0.0752 0.9320
vn -0.9307 -0.1974 0.3080
vn -0.3547 -0.0752 0.9320
vn 0.9375 0.1989 0.2856
vn 0.9375 0.1989 -0.2856
vn -0.3021 -0.0641 -0.9511
vn 0.3021 0.0641 -0.9511
vt 0.625000 0.500000
vt 0.375000 0.500000
vt 0.625000 0.750000
vt 0.375000 0.750000
vt 0.625000 0.250000
vt 0.375000 0.250000
vt 0.625000 1.000000
vt 0.625000 0.000000
vt 0.375000 0.000000
vt 0.375000 1.000000
vt 0.375000 0.125000
vt 0.625000 0.625000
vt 0.625000 0.125000
vt 0.375000 0.625000
vt 0.375000 0.375000
vt 0.625000 0.875000
vt 0.375000 0.875000
vt 0.625000 0.375000
vt 0.375000 0.125000
vt 0.375000 1.000000
vt 0.375000 0.000000
vt 0.375000 0.375000
vt 0.375000 0.250000
vt 0.375000 0.875000
vt 0.375000 0.750000
vt 0.375000 0.625000
vt 0.375000 0.500000
vt 0.375000 0.125000
vt 0.375000 0.000000
vt 0.375000 1.000000
vt 0.375000 0.375000
vt 0.375000 0.250000
vt 0.375000 0.875000
vt 0.375000 0.750000
vt 0.375000 0.625000
vt 0.375000 0.500000
vt 0.375000 0.125000
vt 0.375000 0.000000
vt 0.375000 1.000000
vt 0.375000 0.375000
vt 0.375000 0.250000
vt 0.375000 0.875000
vt 0.375000 0.750000
vt 0.375000 0.625000
vt 0.375000 0.500000
s 0
usemtl Material
f 15/17/1 14/16/1 7/7/1 8/10/1
f 9/11/2 11/13/2 5/5/2 6/6/2
f 12/14/3 10/12/3 3/3/3 4/4/3
f 13/15/4 16/18/4 1/1/4 2/2/4
f 2/2/5 1/1/5 10/12/5 12/14/5
f 8/9/6 7/8/6 11/13/6 9/11/6
f 6/6/7 5/5/7 16/18/7 13/15/7
f 8/9/8 9/11/8 17/19/8 18/21/8
f 4/4/9 3/3/9 14/16/9 15/17/9
f 14/16/10 3/3/10 10/12/10 1/1/10 16/18/10 5/5/10 11/13/10 7/8/10
f 21/24/11 18/20/11 26/30/11 29/33/11
f 2/2/12 12/14/12 23/26/12 24/27/12
f 15/17/13 8/10/13 18/20/13 21/24/13
f 13/15/14 2/2/14 24/27/14 19/22/14
f 9/11/15 6/6/15 20/23/15 17/19/15
f 6/6/16 13/15/16 19/22/16 20/23/16
f 4/4/17 15/17/17 21/24/17 22/25/17
f 12/14/18 4/4/18 22/25/18 23/26/18
f 23/26/11 22/25/11 30/34/11 31/35/11
f 24/27/11 23/26/11 31/35/11 32/36/11
f 20/23/11 19/22/11 27/31/11 28/32/11
f 19/22/11 24/27/11 32/36/11 27/31/11
f 17/19/11 20/23/11 28/32/11 25/28/11
f 22/25/11 21/24/11 29/33/11 30/34/11
f 18/21/11 17/19/11 25/28/11 26/29/11
usemtl Material.001
f 25/28/19 28/32/19 36/41/19 33/37/19
f 33/37/11 36/41/11 35/40/11 40/45/11 39/44/11 38/43/11 37/42/11 34/39/11
f 30/34/20 29/33/20 37/42/20 38/43/20
f 26/29/21 25/28/21 33/37/21 34/38/21
f 29/33/22 26/30/22 34/39/22 37/42/22
f 31/35/23 30/34/23 38/43/23 39/44/23
f 32/36/24 31/35/24 39/44/24 40/45/24
f 28/32/25 27/31/25 35/40/25 36/41/25
f 27/31/26 32/36/26 40/45/26 35/40/26
