# Blender 3.4.1
# www.blender.org
mtllib ceiling_light.mtl
o Cube
v 0.743269 1.000000 -0.743269
v 2.061516 -1.000000 -2.061516
v 0.743269 1.000000 0.743269
v 2.061516 -1.000000 2.061516
v -0.743269 1.000000 -0.743269
v -2.061516 -1.000000 -2.061516
v -0.743269 1.000000 0.743269
v -2.061516 -1.000000 2.061516
v 0.142466 1.000000 0.142466
v -0.142466 1.000000 0.142466
v 0.142466 1.000000 -0.142466
v -0.142466 1.000000 -0.142466
v 0.124843 1.736965 0.124843
v -0.124843 1.736965 0.124843
v 0.124843 1.736965 -0.124843
v -0.124843 1.736965 -0.124843
v 1.792137 -0.049535 -1.792137
v -1.792137 -0.049535 1.792137
v 1.792137 -0.049535 1.792137
v -1.792137 -0.049535 -1.792137
v -1.520993 0.475233 1.520993
v 1.520993 0.475233 -1.520993
v 1.520993 0.475233 1.520993
v -1.520993 0.475233 -1.520993
v 0.000000 -1.000000 -2.647977
v 0.000000 0.943748 1.231825
v 0.000000 -1.046724 2.775186
v 0.000000 1.000000 -1.267229
v 0.000000 1.000000 0.142466
v 0.000000 1.000000 -0.142466
v 0.000000 1.736965 0.124843
v 0.000000 1.736965 -0.124843
v 0.000000 -0.049535 -2.121449
v 0.000000 -0.088890 2.156861
v 0.000000 0.475233 -1.850305
v 0.000000 0.568300 1.817296
v -2.774946 -1.000000 0.000000
v 1.299070 1.000000 0.000000
v -1.321369 1.000000 0.000000
v 2.781698 -1.000000 0.000000
v 0.142466 1.000000 0.000000
v -0.142466 1.000000 0.000000
v 0.124843 1.736965 0.000000
v -0.124843 1.736965 0.000000
v 2.323738 -0.049535 0.000000
v -2.320314 -0.049535 0.000000
v 2.052594 0.475233 0.000000
v -2.049170 0.475233 0.000000
v 0.000000 2.109752 0.329559
v -0.329559 2.109752 0.329559
v 0.329559 2.109752 0.000000
v 0.329559 2.109752 0.329559
v -0.329559 2.109752 0.000000
v -0.329559 2.109752 -0.329559
v 0.000000 2.109752 -0.329559
v 0.329559 2.109752 -0.329559
v 0.000000 2.109752 0.000000
v -2.526774 -1.039657 0.000338
v -1.872301 -1.039657 1.872671
v 0.000032 -1.039657 -2.366616
v -1.872301 -1.039657 -1.871995
v 0.000032 -1.082094 2.467571
v 1.872365 -1.039657 1.872671
v 2.355181 -1.310128 0.000338
v 1.872365 -1.039657 -1.871995
v -1.559367 0.493245 0.009211
v -1.981581 0.016999 0.006003
v -1.577412 0.016999 1.583503
v 0.000088 0.016999 -1.917099
v -1.577412 0.016999 -1.571497
v 0.000088 -0.018755 1.971370
v 1.577588 0.016999 1.583503
v 1.984377 0.016999 0.006003
v 1.577588 0.016999 -1.571497
v -0.679289 0.887823 0.013572
v -1.241297 0.493245 1.250662
v 0.000154 0.493245 -1.504219
v -1.241297 0.493245 -1.232239
v 0.000154 0.465108 1.555903
v 1.241604 0.493245 1.250662
v 1.561736 0.493245 0.009211
v 1.241604 0.493245 -1.232239
v -0.540688 0.887823 0.554543
v 0.000284 0.887823 -0.645916
v -0.540688 0.887823 -0.527399
v 0.000284 0.875562 0.687554
v 0.541255 0.887823 0.554543
v 0.680755 0.887823 0.013572
v 0.541255 0.887823 -0.527399
v 0.000284 0.887823 0.013572
vn -0.0000 1.0000 -0.0000
vn -0.1770 0.8647 0.4701
vn -0.4732 0.8501 -0.2312
vn -0.1556 -0.9863 0.0541
vn 0.4701 0.8532 0.2258
vn 0.1979 0.8276 -0.5252
vn -0.0000 0.0239 -0.9997
vn -0.0377 0.9982 0.0466
vn -0.0000 -0.4813 0.8765
vn 0.9997 0.0239 -0.0000
vn -0.9997 0.0239 -0.0000
vn -0.0000 0.0239 0.9997
vn 0.2116 0.4028 -0.8905
vn 0.8807 0.3775 0.2861
vn -0.8819 0.3762 -0.2841
vn -0.2333 0.4370 0.8687
vn 0.1703 0.4867 -0.8568
vn 0.8269 0.4958 0.2654
vn -0.8275 0.4957 -0.2638
vn -0.1788 0.4837 0.8568
vn 0.1788 0.4837 0.8568
vn -0.1703 0.4867 -0.8568
vn 0.2333 0.4370 0.8687
vn -0.2116 0.4028 -0.8905
vn 0.8765 -0.4813 -0.0000
vn 0.0377 0.9982 0.0466
vn -0.1979 0.8276 -0.5252
vn 0.0412 -0.9879 -0.1499
vn 0.1770 0.8647 0.4701
vn -0.0641 -0.9901 0.1252
vn -0.8275 0.4957 0.2638
vn 0.8269 0.4958 -0.2654
vn -0.8819 0.3762 0.2841
vn 0.8807 0.3775 -0.2861
vn -0.0000 -0.4813 -0.8765
vn 0.4701 0.8532 -0.2258
vn -0.1554 -0.9864 -0.0540
vn -0.4732 0.8501 0.2312
vn -0.8765 -0.4813 -0.0000
vn -0.2472 -0.3666 -0.8969
vn -0.2214 -0.3534 0.9089
vn -0.9329 -0.2864 -0.2181
vn 0.2214 -0.3535 0.9089
vn 0.4385 -0.8774 -0.1944
vn 0.4388 -0.8773 0.1945
vn -0.0412 -0.9879 -0.1498
vn 0.0641 -0.9901 0.1252
vn 0.1633 -0.6463 0.7454
vn -0.7338 -0.6525 0.1892
vn 0.1693 -0.6421 -0.7477
vn 0.7343 -0.6522 0.1881
vn 0.8816 -0.3867 -0.2705
vn 0.8806 -0.3892 0.2702
vn 0.2472 -0.3667 -0.8969
vn -0.9324 -0.2883 0.2178
vn 0.0843 -0.9009 -0.4258
vn 0.4065 -0.9077 0.1041
vn 0.4073 -0.9073 -0.1044
vn -0.0843 -0.9009 -0.4258
vn -0.7350 -0.6510 -0.1895
vn -0.1633 -0.6462 0.7455
vn -0.1693 -0.6420 -0.7478
vn 0.7355 -0.6508 -0.1884
vn 0.0091 -0.9999 -0.0091
vn -0.0091 -0.9999 -0.0091
vn -0.0000 -1.0000 -0.0000
vn -0.4061 -0.9078 0.1047
vn 0.0911 -0.9048 0.4159
vn -0.4069 -0.9074 -0.1049
vn -0.0911 -0.9048 0.4160
vt 0.625000 0.500000
vt 0.375000 0.500000
vt 0.625000 0.750000
vt 0.375000 0.750000
vt 0.625000 0.250000
vt 0.375000 0.250000
vt 0.625000 1.000000
vt 0.625000 0.000000
vt 0.375000 1.000000
vt 0.375000 0.000000
vt 0.625000 0.750000
vt 0.625000 0.000000
vt 0.625000 1.000000
vt 0.625000 0.500000
vt 0.625000 0.250000
vt 0.625000 0.750000
vt 0.625000 0.000000
vt 0.625000 1.000000
vt 0.625000 0.500000
vt 0.625000 0.250000
vt 0.500000 0.500000
vt 0.500000 1.000000
vt 0.500000 0.000000
vt 0.500000 0.750000
vt 0.500000 0.250000
vt 0.562500 1.000000
vt 0.562500 0.000000
vt 0.562500 0.500000
vt 0.562500 0.750000
vt 0.562500 0.250000
vt 0.375000 0.375000
vt 0.625000 0.875000
vt 0.375000 0.875000
vt 0.625000 0.375000
vt 0.625000 0.875000
vt 0.625000 0.375000
vt 0.625000 0.875000
vt 0.625000 0.375000
vt 0.500000 0.375000
vt 0.500000 0.875000
vt 0.562500 0.375000
vt 0.562500 0.875000
vt 0.375000 0.125000
vt 0.625000 0.625000
vt 0.625000 0.125000
vt 0.375000 0.625000
vt 0.625000 0.625000
vt 0.625000 0.125000
vt 0.625000 0.625000
vt 0.625000 0.125000
vt 0.500000 0.625000
vt 0.500000 0.125000
vt 0.562500 0.625000
vt 0.562500 0.125000
vt 0.750000 0.750000
vt 0.625000 0.875000
vt 0.875000 0.750000
vt 0.625000 0.000000
vt 0.625000 1.000000
vt 0.625000 0.625000
vt 0.625000 0.750000
vt 0.875000 0.625000
vt 0.625000 0.125000
vt 0.875000 0.500000
vt 0.625000 0.250000
vt 0.750000 0.500000
vt 0.625000 0.375000
vt 0.625000 0.500000
vt 0.750000 0.625000
vt 0.375000 0.125000
vt 0.375000 0.000000
vt 0.375000 1.000000
vt 0.375000 0.375000
vt 0.375000 0.250000
vt 0.375000 0.875000
vt 0.375000 0.750000
vt 0.375000 0.625000
vt 0.375000 0.500000
vt 0.375000 0.125000
vt 0.375000 0.125000
vt 0.375000 1.000000
vt 0.375000 0.000000
vt 0.375000 0.375000
vt 0.375000 0.250000
vt 0.375000 0.875000
vt 0.375000 0.750000
vt 0.375000 0.625000
vt 0.375000 0.500000
vt 0.375000 0.125000
vt 0.125000 0.625000
vt 0.375000 1.000000
vt 0.375000 0.000000
vt 0.375000 0.375000
vt 0.375000 0.250000
vt 0.375000 0.875000
vt 0.375000 0.750000
vt 0.375000 0.625000
vt 0.375000 0.500000
vt 0.375000 1.000000
vt 0.375000 0.000000
vt 0.125000 0.750000
vt 0.250000 0.500000
vt 0.375000 0.375000
vt 0.125000 0.500000
vt 0.375000 0.250000
vt 0.375000 0.875000
vt 0.250000 0.750000
vt 0.375000 0.750000
vt 0.375000 0.625000
vt 0.375000 0.500000
vt 0.250000 0.625000
s 0
usemtl Material
f 39/45/1 7/8/1 10/12/1 42/48/1
f 36/42/2 26/32/2 7/7/2 21/26/2
f 48/54/3 39/45/3 5/5/3 24/30/3
f 8/10/4 37/43/4 58/70/4 59/71/4
f 47/53/5 38/44/5 3/3/5 23/29/5
f 35/41/6 28/34/6 1/1/6 22/28/6
f 30/36/7 12/15/7 16/20/7 32/38/7
f 38/44/1 1/1/1 11/14/1 41/47/1
f 28/34/1 5/5/1 12/15/1 30/36/1
f 26/32/8 3/3/8 9/11/8 29/35/8
f 31/37/9 13/16/9 52/61/9 49/56/9
f 41/47/10 11/14/10 15/19/10 43/49/10
f 42/48/11 10/12/11 14/17/11 44/50/11
f 29/35/12 9/11/12 13/16/12 31/37/12
f 25/31/13 33/39/13 17/21/13 2/2/13
f 40/46/14 45/51/14 19/24/14 4/4/14
f 37/43/15 46/52/15 20/25/15 6/6/15
f 27/33/16 34/40/16 18/22/16 8/9/16
f 33/39/17 35/41/17 22/28/17 17/21/17
f 45/51/18 47/53/18 23/29/18 19/24/18
f 46/52/19 48/54/19 24/30/19 20/25/19
f 34/40/20 36/42/20 21/26/20 18/22/20
f 19/24/21 23/29/21 36/42/21 34/40/21
f 20/25/22 24/30/22 35/41/22 33/39/22
f 4/4/23 19/24/23 34/40/23 27/33/23
f 6/6/24 20/25/24 33/39/24 25/31/24
f 10/13/12 29/35/12 31/37/12 14/18/12
f 43/49/25 15/19/25 56/68/25 51/60/25
f 7/7/26 26/32/26 29/35/26 10/13/26
f 1/1/1 28/34/1 30/36/1 11/14/1
f 11/14/7 30/36/7 32/38/7 15/19/7
f 24/30/27 5/5/27 28/34/27 35/41/27
f 25/31/28 2/2/28 65/78/28 60/73/28
f 23/29/29 3/3/29 26/32/29 36/42/29
f 27/33/30 8/9/30 59/72/30 62/75/30
f 13/16/25 43/49/25 51/60/25 52/61/25
f 18/23/31 21/27/31 48/54/31 46/52/31
f 17/21/32 22/28/32 47/53/32 45/51/32
f 8/10/33 18/23/33 46/52/33 37/43/33
f 2/2/34 17/21/34 45/51/34 40/46/34
f 12/15/11 42/48/11 44/50/11 16/20/11
f 9/11/10 41/47/10 43/49/10 13/16/10
f 15/19/35 32/38/35 55/67/35 56/68/35
f 3/3/1 38/44/1 41/47/1 9/11/1
f 22/28/36 1/1/36 38/44/36 47/53/36
f 37/43/37 6/6/37 61/74/37 58/70/37
f 21/27/38 7/8/38 39/45/38 48/54/38
f 5/5/1 39/45/1 42/48/1 12/15/1
f 57/69/1 53/62/1 50/57/1 49/55/1
f 51/60/1 57/69/1 49/55/1 52/61/1
f 56/68/1 55/66/1 57/69/1 51/60/1
f 55/66/1 54/64/1 53/62/1 57/69/1
f 16/20/39 44/50/39 53/63/39 54/65/39
f 44/50/39 14/17/39 50/58/39 53/63/39
f 14/18/9 31/37/9 49/56/9 50/59/9
f 32/38/35 16/20/35 54/65/35 55/67/35
f 63/76/40 62/75/40 71/85/40 72/86/40
f 60/73/41 65/78/41 74/88/41 69/83/41
f 64/77/42 63/76/42 72/86/42 73/87/42
f 61/74/43 60/73/43 69/83/43 70/84/43
f 2/2/44 40/46/44 64/77/44 65/78/44
f 40/46/45 4/4/45 63/76/45 64/77/45
f 6/6/46 25/31/46 60/73/46 61/74/46
f 4/4/47 27/33/47 62/75/47 63/76/47
f 70/84/48 69/83/48 77/93/48 78/94/48
f 74/88/49 73/87/49 81/97/49 82/98/49
f 71/85/50 68/81/50 76/91/50 79/95/50
f 67/80/51 70/84/51 78/94/51 66/79/51
f 59/71/52 58/70/52 67/80/52 68/82/52
f 58/70/53 61/74/53 70/84/53 67/80/53
f 62/75/54 59/72/54 68/81/54 71/85/54
f 65/78/55 64/77/55 73/87/55 74/88/55
f 79/95/56 76/91/56 83/99/56 86/106/56
f 66/79/57 78/94/57 85/105/57 75/89/57
f 76/92/58 66/79/58 75/89/58 83/100/58
f 80/96/59 79/95/59 86/106/59 87/108/59
f 73/87/60 72/86/60 80/96/60 81/97/60
f 69/83/61 74/88/61 82/98/61 77/93/61
f 72/86/62 71/85/62 79/95/62 80/96/62
f 68/82/63 67/80/63 66/79/63 76/92/63
f 90/111/64 88/109/64 87/108/64 86/107/64
f 75/90/65 90/111/65 86/107/65 83/101/65
f 85/104/66 84/102/66 90/111/66 75/90/66
f 84/102/66 89/110/66 88/109/66 90/111/66
f 82/98/67 81/97/67 88/109/67 89/110/67
f 78/94/68 77/93/68 84/103/68 85/105/68
f 81/97/69 80/96/69 87/108/69 88/109/69
f 77/93/70 82/98/70 89/110/70 84/103/70
