# Blender 3.4.1
# www.blender.org
mtllib chest.mtl
o Cube.004
v 2.476611 -0.856275 -0.876226
v 2.476611 -0.857399 -0.707810
v 2.476611 0.859814 -0.864778
v 2.476611 0.858690 -0.696362
v -0.862984 -0.856275 -0.876226
v -0.862984 -0.857399 -0.707810
v -0.862984 0.859814 -0.864778
v -0.862984 0.858690 -0.696362
v 2.476611 -0.863911 0.878105
v 2.476611 -0.865035 1.046521
v 2.476611 0.852178 0.889554
v 2.476611 0.851054 1.057970
v -0.862984 -0.863911 0.878105
v -0.862984 -0.865035 1.046521
v -0.862984 0.852178 0.889554
v -0.862984 0.851054 1.057970
v -0.863263 -1.003278 1.041160
v -1.001972 -1.003278 1.041160
v -0.863263 0.851054 1.053531
v -0.863263 -0.990473 -0.878180
v -1.001972 -0.990473 -0.878180
v -0.863263 0.863859 -0.865809
v -1.001972 0.863859 -0.865809
v -1.001972 0.851054 1.053531
v 2.614794 -1.000993 1.041175
v 2.476085 -1.000993 1.041175
v 2.614794 0.851054 1.053531
v 2.614794 -0.988189 -0.878165
v 2.476085 -0.988189 -0.878165
v 2.614794 0.863859 -0.865809
v 2.476085 0.863859 -0.865809
v 2.476085 0.851054 1.053531
v 2.476772 -0.864182 1.042088
v 2.476772 -1.002097 1.041168
v -0.862984 -0.864182 1.042088
v 2.476772 -0.851378 -0.877252
v 2.476772 -0.989293 -0.878172
v -0.862984 -0.851378 -0.877252
v -0.862984 -0.989293 -0.878172
v -0.862984 -1.002097 1.041168
vn -0.0000 0.0067 -1.0000
vn -0.0000 1.0000 0.0067
vn -1.0000 -0.0000 -0.0000
vn -0.0000 -0.0067 1.0000
vn 1.0000 -0.0000 -0.0000
vn -0.0000 -1.0000 -0.0067
vt 0.625000 0.500000
vt 0.375000 0.500000
vt 0.625000 0.750000
vt 0.375000 0.750000
vt 0.875000 0.500000
vt 0.625000 0.250000
vt 0.125000 0.500000
vt 0.375000 0.250000
vt 0.875000 0.750000
vt 0.625000 1.000000
vt 0.625000 0.000000
vt 0.375000 1.000000
vt 0.375000 0.000000
vt 0.125000 0.750000
vt 0.625000 0.500000
vt 0.375000 0.500000
vt 0.625000 0.750000
vt 0.375000 0.750000
vt 0.875000 0.500000
vt 0.625000 0.250000
vt 0.125000 0.500000
vt 0.375000 0.250000
vt 0.875000 0.750000
vt 0.625000 1.000000
vt 0.625000 0.000000
vt 0.375000 1.000000
vt 0.375000 0.000000
vt 0.125000 0.750000
vt 0.625000 0.500000
vt 0.375000 0.500000
vt 0.625000 0.750000
vt 0.875000 0.500000
vt 0.625000 0.250000
vt 0.375000 0.250000
vt 0.125000 0.500000
vt 0.875000 0.750000
vt 0.625000 0.000000
vt 0.625000 1.000000
vt 0.375000 0.000000
vt 0.375000 1.000000
vt 0.125000 0.750000
vt 0.375000 0.750000
vt 0.625000 0.500000
vt 0.375000 0.500000
vt 0.625000 0.750000
vt 0.875000 0.500000
vt 0.625000 0.250000
vt 0.375000 0.250000
vt 0.125000 0.500000
vt 0.875000 0.750000
vt 0.625000 0.000000
vt 0.625000 1.000000
vt 0.375000 0.000000
vt 0.375000 1.000000
vt 0.125000 0.750000
vt 0.375000 0.750000
vt 0.625000 0.500000
vt 0.375000 0.500000
vt 0.625000 0.750000
vt 0.875000 0.500000
vt 0.625000 0.250000
vt 0.375000 0.250000
vt 0.125000 0.500000
vt 0.875000 0.750000
vt 0.625000 0.000000
vt 0.625000 1.000000
vt 0.375000 0.000000
vt 0.375000 1.000000
vt 0.125000 0.750000
vt 0.375000 0.750000
s 0
usemtl Material
f 1/1/1 5/5/1 7/9/1 3/3/1
f 4/4/2 3/3/2 7/10/2 8/12/2
f 8/13/3 7/11/3 5/6/3 6/8/3
f 6/7/4 2/2/4 4/4/4 8/14/4
f 2/2/5 1/1/5 3/3/5 4/4/5
f 6/8/6 5/6/6 1/1/6 2/2/6
f 9/15/1 13/19/1 15/23/1 11/17/1
f 12/18/2 11/17/2 15/24/2 16/26/2
f 16/27/3 15/25/3 13/20/3 14/22/3
f 14/21/4 10/16/4 12/18/4 16/28/4
f 10/16/5 9/15/5 11/17/5 12/18/5
f 14/22/6 13/20/6 9/15/6 10/16/6
f 21/34/6 20/33/6 17/29/6 18/30/6
f 18/30/4 17/29/4 19/31/4 24/42/4
f 17/29/5 20/32/5 22/36/5 19/31/5
f 23/39/1 22/37/1 20/33/1 21/34/1
f 24/42/2 19/31/2 22/38/2 23/40/2
f 21/35/3 18/30/3 24/42/3 23/41/3
f 29/48/6 28/47/6 25/43/6 26/44/6
f 26/44/4 25/43/4 27/45/4 32/56/4
f 25/43/5 28/46/5 30/50/5 27/45/5
f 31/53/1 30/51/1 28/47/1 29/48/1
f 32/56/2 27/45/2 30/52/2 31/54/2
f 29/49/3 26/44/3 32/56/3 31/55/3
f 37/62/5 36/61/5 33/57/5 34/58/5
f 34/58/4 33/57/4 35/59/4 40/70/4
f 33/57/2 36/60/2 38/64/2 35/59/2
f 39/67/1 38/65/1 36/61/1 37/62/1
f 40/70/3 35/59/3 38/66/3 39/68/3
f 37/63/6 34/58/6 40/70/6 39/69/6
