# Blender 3.4.1
# www.blender.org
mtllib desk_lamp.mtl
o Cube
v 1.043362 0.138287 -1.043362
v 1.043362 -0.138287 -1.043362
v 1.043362 0.138287 1.043362
v 1.043362 -0.138287 1.043362
v -1.043362 0.138287 -1.043362
v -1.043362 -0.138287 -1.043362
v -1.043362 0.138287 1.043362
v -1.043362 -0.138287 1.043362
v 0.000000 -0.138287 -1.413762
v 0.000000 0.138287 1.431594
v 0.000000 -0.138287 1.431594
v 0.000000 0.138287 -1.413762
v -1.486821 -0.138287 0.000000
v 1.456771 0.138287 0.000000
v -1.486821 0.138287 0.000000
v 1.456771 -0.138287 0.000000
v 0.000000 -0.138287 0.000000
v -0.003366 0.138287 0.150785
v -0.111804 0.138287 0.110435
v 0.148038 0.138287 0.001997
v 0.105072 0.138287 0.110435
v -0.157893 0.138287 0.001997
v -0.111804 0.138287 -0.106441
v -0.003366 0.138287 -0.144937
v 0.105072 0.138287 -0.106441
v -0.003390 2.233185 -0.146638
v 0.098425 2.274001 -0.107696
v -0.148479 2.175022 0.001995
v -0.105204 2.192370 -0.107696
v 0.138767 2.290173 0.001995
v 0.098425 2.274001 0.111686
v -0.003390 2.233185 0.152502
v -0.105204 2.192370 0.111686
v -0.898389 3.607820 -0.144937
v -0.833501 3.694701 -0.106441
v -0.990856 3.484011 0.001997
v -0.963277 3.520939 -0.106441
v -0.807791 3.729126 0.001997
v -0.833501 3.694701 0.110435
v -0.898389 3.607820 0.150785
v -0.963277 3.520939 0.110435
v -1.131268 3.781567 -0.144937
v -1.157587 3.886763 -0.106440
v -1.093764 3.584757 0.001997
v -1.104950 3.629468 -0.106440
v -1.168015 3.928444 0.001997
v -1.157587 3.886763 0.110435
v -1.131268 3.781567 0.150785
v -1.104950 3.676372 0.110435
v -1.377603 3.719872 -0.144937
v -1.457117 3.793604 -0.106440
v -1.264294 3.567899 0.001997
v -1.298089 3.599237 -0.106440
v -1.488622 3.822818 0.001997
v -1.457117 3.793604 0.110435
v -1.377603 3.719872 0.150785
v -1.298089 3.646141 0.110435
v -1.727292 3.344474 -0.584949
v -2.044546 3.638655 -0.431353
v -1.275199 2.925257 0.001305
v -1.410040 3.050292 -0.431353
v -2.170250 3.755219 0.001305
v -2.044546 3.638655 0.433962
v -1.727292 3.344474 0.594953
v -1.410040 3.050292 0.433962
v -2.249872 2.781788 -0.809753
v -2.688588 3.188599 -0.597351
v -1.624693 2.202071 0.000951
v -1.811159 2.374977 -0.597351
v -2.862419 3.349788 0.000951
v -2.688588 3.188599 0.599253
v -2.249872 2.781788 0.821880
v -1.811159 2.374977 0.599253
v -2.534040 2.475335 -0.809753
v -2.972755 2.882145 -0.597351
v -1.908860 1.895618 0.000951
v -2.095326 2.068524 -0.597351
v -3.146586 3.043335 0.000951
v -2.972755 2.882145 0.599253
v -2.534040 2.475335 0.821880
v -2.095326 2.068524 0.599253
v -2.533716 2.475035 -0.643387
v -2.882545 2.798495 -0.474504
v -2.036629 2.014095 0.001213
v -2.184890 2.151574 -0.474504
v -3.020759 2.926658 0.001213
v -2.882545 2.798495 0.476930
v -2.533716 2.475035 0.653943
v -2.184890 2.151574 0.476930
v -2.144943 2.893345 -0.399172
v -2.361821 3.094450 -0.294172
v -1.835887 2.606764 0.001597
v -1.928066 2.692239 -0.294172
v -2.447754 3.174134 0.001597
v -2.361821 3.094450 0.297366
v -2.144943 2.893345 0.407421
v -1.928066 2.692239 0.297366
v -0.294971 3.187693 -0.107068
v -0.264207 3.217214 0.001996
v -0.294971 3.187693 0.111060
v -0.372614 3.113186 0.151643
v -0.372614 3.113186 -0.145787
v -0.450258 3.038680 0.111060
v -0.483258 3.007013 0.001996
v -0.450258 3.038680 -0.107068
v -0.118035 -0.118035 0.118035
v -0.118035 0.118035 0.118035
v -0.118035 -0.118035 -0.118035
v -0.118035 0.118035 -0.118035
v 0.118035 -0.118035 0.118035
v 0.118035 0.118035 0.118035
v 0.118035 -0.118035 -0.118035
v 0.118035 0.118035 -0.118035
vn -0.0000 1.0000 -0.0000
vn -0.3487 -0.0000 0.9372
vn -0.9203 -0.0000 -0.3912
vn -0.0000 -1.0000 -0.0000
vn 0.9297 -0.0000 0.3684
vn 0.3346 -0.0000 -0.9424
vn -0.3346 -0.0000 -0.9424
vn 0.3487 -0.0000 0.9372
vn -0.9254 0.0035 -0.3789
vn 0.9297 -0.0000 -0.3684
vn -0.9203 -0.0000 0.3912
vn 0.6381 0.6779 -0.3650
vn 0.9341 0.0034 -0.3570
vn 0.3601 -0.0001 0.9329
vn 0.3456 -0.0001 -0.9384
vn 0.9341 0.0034 0.3570
vn -0.9254 0.0035 0.3789
vn -0.3456 -0.0001 -0.9384
vn -0.3601 -0.0001 0.9329
vn -0.2835 -0.3225 0.9031
vn 0.2405 0.2570 0.9360
vn 0.6381 0.6779 0.3650
vn 0.2307 0.2466 -0.9413
vn -0.6314 -0.6716 0.3877
vn -0.2321 -0.2454 -0.9412
vn -0.2419 -0.2558 0.9360
vn -0.6314 -0.6716 -0.3877
vn -0.1017 0.3584 0.9280
vn -0.6164 -0.7204 -0.3178
vn 0.4701 0.8219 -0.3216
vn 0.2228 0.3392 0.9139
vn 0.4701 0.8219 0.3216
vn 0.2142 0.3261 -0.9208
vn -0.6561 -0.6264 0.4209
vn -0.2037 -0.2703 -0.9410
vn 0.6268 0.2775 0.7281
vn -0.2863 0.8930 0.3473
vn -0.0976 0.3441 -0.9338
vn 0.1001 -0.7731 0.6263
vn 0.0528 -0.2523 -0.9662
vn 0.0777 -0.3714 0.9252
vn 0.1203 -0.9288 -0.3506
vn -0.2863 0.8930 -0.3473
vn 0.8341 -0.4033 0.3765
vn 0.9533 -0.0159 -0.3017
vn -0.0943 0.9540 -0.2844
vn 0.2302 0.6464 0.7275
vn -0.0949 0.9539 0.2846
vn 0.2369 0.6380 -0.7326
vn 0.9529 -0.0156 0.3028
vn 0.6374 0.2767 -0.7191
vn 0.6748 -0.6258 0.3912
vn 0.4172 -0.0245 -0.9085
vn 0.4278 -0.0330 0.9033
vn 0.8342 -0.4030 -0.3764
vn -0.4724 0.8069 -0.3546
vn -0.0648 0.4244 0.9032
vn -0.4727 0.8067 0.3547
vn -0.0555 0.4144 -0.9084
vn -0.6799 -0.7333 -0.0000
vn 0.2453 -0.2275 -0.9424
vn 0.2557 -0.2371 0.9372
vn 0.6748 -0.6258 -0.3912
vn -0.6817 0.6321 -0.3684
vn -0.2557 0.2371 0.9372
vn -0.6817 0.6321 0.3684
vn -0.2453 0.2275 -0.9424
vn 0.3726 -0.8632 0.3408
vn -0.0182 -0.4950 -0.8687
vn 0.3729 -0.8630 -0.3409
vn -0.0269 -0.4853 0.8740
vn -0.8830 0.2993 -0.3617
vn -0.4815 -0.0628 0.8742
vn -0.4919 -0.0549 -0.8689
vn -0.8831 0.2989 0.3616
vn -0.8584 -0.3476 -0.3772
vn -0.3345 -0.1376 0.9323
vn -0.3210 -0.1320 -0.9378
vn -0.8584 -0.3476 0.3772
vn 0.3185 0.1362 -0.9381
vn 0.8575 0.3711 0.3563
vn 0.3318 0.1419 0.9326
vn 0.8575 0.3711 -0.3563
vn -1.0000 -0.0000 -0.0000
vn -0.0000 -0.0000 -1.0000
vn 1.0000 -0.0000 -0.0000
vn -0.0000 -0.0000 1.0000
vt 0.625000 0.500000
vt 0.375000 0.500000
vt 0.625000 0.750000
vt 0.375000 0.750000
vt 0.625000 0.250000
vt 0.375000 0.250000
vt 0.125000 0.500000
vt 0.625000 1.000000
vt 0.625000 0.000000
vt 0.375000 1.000000
vt 0.125000 0.750000
vt 0.375000 0.000000
vt 0.375000 0.375000
vt 0.250000 0.500000
vt 0.625000 0.875000
vt 0.250000 0.750000
vt 0.375000 0.875000
vt 0.625000 0.375000
vt 0.125000 0.625000
vt 0.375000 0.125000
vt 0.625000 0.625000
vt 0.625000 0.125000
vt 0.375000 0.625000
vt 0.250000 0.625000
vt 0.625000 0.875000
vt 0.625000 0.000000
vt 0.625000 1.000000
vt 0.625000 0.625000
vt 0.625000 0.750000
vt 0.625000 0.125000
vt 0.625000 0.250000
vt 0.625000 0.375000
vt 0.625000 0.500000
vt 0.625000 0.375000
vt 0.625000 0.500000
vt 0.625000 0.125000
vt 0.625000 0.250000
vt 0.625000 0.625000
vt 0.625000 0.750000
vt 0.625000 0.875000
vt 0.625000 1.000000
vt 0.625000 0.000000
vt 0.625000 0.375000
vt 0.625000 0.500000
vt 0.625000 0.125000
vt 0.625000 0.250000
vt 0.625000 0.625000
vt 0.625000 0.750000
vt 0.625000 0.875000
vt 0.625000 1.000000
vt 0.625000 0.000000
vt 0.625000 0.375000
vt 0.625000 0.500000
vt 0.625000 0.125000
vt 0.625000 0.250000
vt 0.625000 0.625000
vt 0.625000 0.750000
vt 0.625000 0.875000
vt 0.625000 0.000000
vt 0.625000 1.000000
vt 0.625000 0.375000
vt 0.625000 0.500000
vt 0.625000 0.125000
vt 0.625000 0.250000
vt 0.625000 0.625000
vt 0.625000 0.750000
vt 0.625000 0.875000
vt 0.625000 1.000000
vt 0.625000 0.000000
vt 0.625000 0.375000
vt 0.625000 0.500000
vt 0.625000 0.125000
vt 0.625000 0.250000
vt 0.625000 0.625000
vt 0.625000 0.750000
vt 0.625000 0.875000
vt 0.625000 0.000000
vt 0.625000 1.000000
vt 0.625000 0.375000
vt 0.625000 0.500000
vt 0.625000 0.125000
vt 0.625000 0.250000
vt 0.625000 0.625000
vt 0.625000 0.750000
vt 0.625000 0.875000
vt 0.625000 0.000000
vt 0.625000 1.000000
vt 0.625000 0.375000
vt 0.625000 0.500000
vt 0.625000 0.125000
vt 0.625000 0.250000
vt 0.625000 0.625000
vt 0.625000 0.750000
vt 0.625000 0.875000
vt 0.625000 0.000000
vt 0.625000 1.000000
vt 0.625000 0.375000
vt 0.625000 0.500000
vt 0.625000 0.125000
vt 0.625000 0.250000
vt 0.625000 0.625000
vt 0.625000 0.750000
vt 0.625000 0.875000
vt 0.625000 0.000000
vt 0.625000 1.000000
vt 0.625000 0.375000
vt 0.625000 0.500000
vt 0.625000 0.125000
vt 0.625000 0.250000
vt 0.625000 0.625000
vt 0.625000 0.750000
vt 0.625000 0.875000
vt 0.625000 0.000000
vt 0.625000 1.000000
vt 0.625000 0.500000
vt 0.625000 0.625000
vt 0.625000 0.750000
vt 0.625000 0.875000
vt 0.625000 0.375000
vt 0.625000 1.000000
vt 0.625000 0.000000
vt 0.625000 0.125000
vt 0.625000 0.250000
vt 0.375000 0.000000
vt 0.375000 1.000000
vt 0.125000 0.750000
vt 0.625000 0.000000
vt 0.625000 1.000000
vt 0.875000 0.750000
vt 0.375000 0.250000
vt 0.125000 0.500000
vt 0.625000 0.250000
vt 0.875000 0.500000
vt 0.375000 0.750000
vt 0.625000 0.750000
vt 0.375000 0.500000
vt 0.625000 0.500000
s 0
usemtl Material
f 7/8/1 10/15/1 18/25/1 19/27/1
f 11/17/2 10/15/2 7/8/2 8/10/2
f 13/20/3 15/22/3 5/5/3 6/6/3
f 17/24/4 16/23/4 4/4/4 11/16/4
f 16/23/5 14/21/5 3/3/5 4/4/5
f 9/13/6 12/18/6 1/1/6 2/2/6
f 6/6/7 5/5/7 12/18/7 9/13/7
f 13/19/4 17/24/4 11/16/4 8/11/4
f 4/4/8 3/3/8 10/15/8 11/17/8
f 1/1/1 12/18/1 24/32/1 25/33/1
f 23/31/9 22/30/9 28/36/9 29/37/9
f 6/7/4 9/14/4 17/24/4 13/19/4
f 2/2/10 1/1/10 14/21/10 16/23/10
f 9/14/4 2/2/4 16/23/4 17/24/4
f 8/12/11 7/9/11 15/22/11 13/20/11
f 14/21/1 1/1/1 25/33/1 20/28/1
f 12/18/1 5/5/1 23/31/1 24/32/1
f 10/15/1 3/3/1 21/29/1 18/25/1
f 15/22/1 7/9/1 19/26/1 22/30/1
f 5/5/1 15/22/1 22/30/1 23/31/1
f 3/3/1 14/21/1 20/28/1 21/29/1
f 99/116/12 98/115/12 35/44/12 38/47/12
f 20/28/13 25/33/13 27/35/13 30/38/13
f 18/25/14 21/29/14 31/39/14 32/40/14
f 25/33/15 24/32/15 26/34/15 27/35/15
f 21/29/16 20/28/16 30/38/16 31/39/16
f 22/30/17 19/26/17 33/42/17 28/36/17
f 24/32/18 23/31/18 29/37/18 26/34/18
f 19/27/19 18/25/19 32/40/19 33/41/19
f 41/50/20 40/49/20 48/58/20 49/60/20
f 101/118/21 100/117/21 39/48/21 40/49/21
f 100/117/22 99/116/22 38/47/22 39/48/22
f 98/115/23 102/119/23 34/43/23 35/44/23
f 104/122/24 103/121/24 41/51/24 36/45/24
f 102/119/25 105/123/25 37/46/25 34/43/25
f 103/120/26 101/118/26 40/49/26 41/50/26
f 105/123/27 104/122/27 36/45/27 37/46/27
f 48/58/28 47/57/28 55/66/28 56/67/28
f 37/46/29 36/45/29 44/54/29 45/55/29
f 38/47/30 35/44/30 43/53/30 46/56/30
f 40/49/31 39/48/31 47/57/31 48/58/31
f 39/48/32 38/47/32 46/56/32 47/57/32
f 35/44/33 34/43/33 42/52/33 43/53/33
f 36/45/34 41/51/34 49/59/34 44/54/34
f 34/43/35 37/46/35 45/55/35 42/52/35
f 57/68/36 56/67/36 64/76/36 65/78/36
f 47/57/37 46/56/37 54/65/37 55/66/37
f 43/53/38 42/52/38 50/61/38 51/62/38
f 44/54/39 49/59/39 57/69/39 52/63/39
f 42/52/40 45/55/40 53/64/40 50/61/40
f 49/60/41 48/58/41 56/67/41 57/68/41
f 45/55/42 44/54/42 52/63/42 53/64/42
f 46/56/43 43/53/43 51/62/43 54/65/43
f 60/72/44 65/77/44 73/86/44 68/81/44
f 53/64/45 52/63/45 60/72/45 61/73/45
f 54/65/46 51/62/46 59/71/46 62/74/46
f 56/67/47 55/66/47 63/75/47 64/76/47
f 55/66/48 54/65/48 62/74/48 63/75/48
f 51/62/49 50/61/49 58/70/49 59/71/49
f 52/63/50 57/69/50 65/77/50 60/72/50
f 50/61/51 53/64/51 61/73/51 58/70/51
f 68/81/52 73/86/52 81/95/52 76/90/52
f 58/70/53 61/73/53 69/82/53 66/79/53
f 65/78/54 64/76/54 72/85/54 73/87/54
f 61/73/55 60/72/55 68/81/55 69/82/55
f 62/74/56 59/71/56 67/80/56 70/83/56
f 64/76/57 63/75/57 71/84/57 72/85/57
f 63/75/58 62/74/58 70/83/58 71/84/58
f 59/71/59 58/70/59 66/79/59 67/80/59
f 79/93/60 78/92/60 86/101/60 87/102/60
f 66/79/61 69/82/61 77/91/61 74/88/61
f 73/87/62 72/85/62 80/94/62 81/96/62
f 69/82/63 68/81/63 76/90/63 77/91/63
f 70/83/64 67/80/64 75/89/64 78/92/64
f 72/85/65 71/84/65 79/93/65 80/94/65
f 71/84/66 70/83/66 78/92/66 79/93/66
f 67/80/67 66/79/67 74/88/67 75/89/67
f 86/101/68 83/98/68 91/107/68 94/110/68
f 75/89/60 74/88/60 82/97/60 83/98/60
f 76/90/60 81/95/60 89/104/60 84/99/60
f 74/88/60 77/91/60 85/100/60 82/97/60
f 81/96/60 80/94/60 88/103/60 89/105/60
f 77/91/60 76/90/60 84/99/60 85/100/60
f 78/92/60 75/89/60 83/98/60 86/101/60
f 80/94/60 79/93/60 87/102/60 88/103/60
f 96/112/60 95/111/60 94/110/60 91/107/60 90/106/60 93/109/60 92/108/60 97/113/60
f 88/103/69 87/102/69 95/111/69 96/112/69
f 87/102/70 86/101/70 94/110/70 95/111/70
f 83/98/71 82/97/71 90/106/71 91/107/71
f 84/99/72 89/104/72 97/113/72 92/108/72
f 82/97/73 85/100/73 93/109/73 90/106/73
f 89/105/74 88/103/74 96/112/74 97/114/74
f 85/100/75 84/99/75 92/108/75 93/109/75
f 29/37/76 28/36/76 104/122/76 105/123/76
f 33/41/77 32/40/77 101/118/77 103/120/77
f 26/34/78 29/37/78 105/123/78 102/119/78
f 28/36/79 33/42/79 103/121/79 104/122/79
f 27/35/80 26/34/80 102/119/80 98/115/80
f 31/39/81 30/38/81 99/116/81 100/117/81
f 32/40/82 31/39/82 100/117/82 101/118/82
f 30/38/83 27/35/83 98/115/83 99/116/83
f 106/124/84 107/127/84 109/132/84 108/130/84
f 108/130/85 109/132/85 113/137/85 112/136/85
f 112/136/86 113/137/86 111/135/86 110/134/86
f 110/134/87 111/135/87 107/128/87 106/125/87
f 108/131/4 112/136/4 110/134/4 106/126/4
f 113/137/1 109/133/1 107/129/1 111/135/1
