# Blender 3.4.1
# www.blender.org
mtllib locker.mtl
o Cube
v 0.862984 -0.879410 -0.858064
v 0.862984 -1.047830 -0.858064
v 0.862984 -0.879410 0.858064
v 0.862984 -1.047830 0.858064
v -0.862984 -0.879410 -0.858064
v -0.862984 -1.047830 -0.858064
v -0.862984 -0.879410 0.858064
v -0.862984 -1.047830 0.858064
v -0.863263 -1.047830 -0.996310
v -1.001972 -1.047830 -0.996310
v -0.863263 -1.047830 0.858064
v -1.001972 -1.047830 0.858064
v -0.863263 0.871553 -0.996310
v -1.001972 0.871553 -0.996310
v -0.863263 0.871553 0.858064
v -1.001972 0.871553 0.858064
v 1.000804 -1.047830 -0.994025
v 0.862095 -1.047830 -0.994025
v 1.000804 -1.047830 0.858064
v 0.862095 -1.047830 0.858064
v 1.000804 0.871553 -0.994025
v 0.862095 0.871553 -0.994025
v 1.000804 0.871553 0.858064
v 0.862095 0.871553 0.858064
v 0.862984 -1.047830 -0.857211
v 0.862984 -1.047830 -0.995130
v -0.862984 -1.047830 -0.857211
v -0.862984 -1.047830 -0.995130
v 0.862984 0.871553 -0.857211
v 0.862984 0.871553 -0.995130
v -0.862984 0.871553 -0.857211
v -0.862984 0.871553 -0.995130
v 1.077309 1.041378 -1.111091
v 1.077309 0.872958 -1.111091
v 1.077309 1.041378 0.947801
v 1.077309 0.872958 0.947801
v -1.080228 1.041378 -1.111091
v -1.080228 0.872958 -1.111091
v -1.080228 1.041378 0.947801
v -1.080228 0.872958 0.947801
v -0.889587 -1.235783 0.754842
v -0.906663 -1.046327 0.771821
v -0.889587 -1.235783 0.633654
v -0.906663 -1.046327 0.616675
v -0.767704 -1.235783 0.754842
v -0.750628 -1.046327 0.771821
v -0.767704 -1.235783 0.633654
v -0.750628 -1.046327 0.616675
v 0.746202 -1.235783 0.760048
v 0.734363 -1.046327 0.771821
v 0.746202 -1.235783 0.628447
v 0.734363 -1.046327 0.616675
v 0.878558 -1.235783 0.760048
v 0.890398 -1.046327 0.771821
v 0.878558 -1.235783 0.628447
v 0.890398 -1.046327 0.616675
v 0.748938 -1.235783 -0.746318
v 0.734363 -1.046327 -0.731826
v 0.748938 -1.235783 -0.872478
v 0.734363 -1.046327 -0.886971
v 0.875822 -1.235783 -0.746318
v 0.890398 -1.046327 -0.731826
v 0.875822 -1.235783 -0.872478
v 0.890398 -1.046327 -0.886971
v -0.891779 -1.235783 -0.746625
v -0.906663 -1.046327 -0.731826
v -0.891779 -1.235783 -0.872171
v -0.906663 -1.046327 -0.886971
v -0.765512 -1.235783 -0.746625
v -0.750628 -1.046327 -0.731826
v -0.765512 -1.235783 -0.872171
v -0.750628 -1.046327 -0.886971
vn -0.0000 1.0000 -0.0000
vn -0.0000 -0.0000 1.0000
vn -1.0000 -0.0000 -0.0000
vn -0.0000 -1.0000 -0.0000
vn 1.0000 -0.0000 -0.0000
vn -0.0000 -0.0000 -1.0000
vn -0.9960 -0.0898 -0.0000
vn -0.0000 -0.0893 -0.9960
vn 0.9960 -0.0898 -0.0000
vn -0.0000 -0.0893 0.9960
vn -0.9981 -0.0624 -0.0000
vn -0.0000 -0.0620 -0.9981
vn 0.9981 -0.0624 -0.0000
vn -0.0000 -0.0620 0.9981
vn -0.9971 -0.0767 -0.0000
vn -0.0000 -0.0763 -0.9971
vn 0.9971 -0.0767 -0.0000
vn -0.0000 -0.0763 0.9971
vn -0.9969 -0.0783 -0.0000
vn -0.0000 -0.0779 -0.9970
vn 0.9969 -0.0783 -0.0000
vn -0.0000 -0.0779 0.9970
vt 0.625000 0.500000
vt 0.375000 0.500000
vt 0.625000 0.750000
vt 0.375000 0.750000
vt 0.875000 0.500000
vt 0.625000 0.250000
vt 0.125000 0.500000
vt 0.375000 0.250000
vt 0.875000 0.750000
vt 0.625000 1.000000
vt 0.625000 0.000000
vt 0.375000 1.000000
vt 0.375000 0.000000
vt 0.125000 0.750000
vt 0.625000 0.500000
vt 0.375000 0.500000
vt 0.625000 0.750000
vt 0.375000 0.750000
vt 0.875000 0.500000
vt 0.625000 0.250000
vt 0.125000 0.500000
vt 0.375000 0.250000
vt 0.875000 0.750000
vt 0.625000 1.000000
vt 0.625000 0.000000
vt 0.375000 1.000000
vt 0.375000 0.000000
vt 0.125000 0.750000
vt 0.625000 0.500000
vt 0.375000 0.500000
vt 0.625000 0.750000
vt 0.375000 0.750000
vt 0.875000 0.500000
vt 0.625000 0.250000
vt 0.125000 0.500000
vt 0.375000 0.250000
vt 0.875000 0.750000
vt 0.625000 1.000000
vt 0.625000 0.000000
vt 0.375000 1.000000
vt 0.375000 0.000000
vt 0.125000 0.750000
vt 0.625000 0.500000
vt 0.375000 0.500000
vt 0.625000 0.750000
vt 0.375000 0.750000
vt 0.875000 0.500000
vt 0.625000 0.250000
vt 0.125000 0.500000
vt 0.375000 0.250000
vt 0.875000 0.750000
vt 0.625000 1.000000
vt 0.625000 0.000000
vt 0.375000 1.000000
vt 0.375000 0.000000
vt 0.125000 0.750000
vt 0.625000 0.500000
vt 0.375000 0.500000
vt 0.625000 0.750000
vt 0.375000 0.750000
vt 0.875000 0.500000
vt 0.625000 0.250000
vt 0.125000 0.500000
vt 0.375000 0.250000
vt 0.875000 0.750000
vt 0.625000 1.000000
vt 0.625000 0.000000
vt 0.375000 1.000000
vt 0.375000 0.000000
vt 0.125000 0.750000
vt 0.375000 0.000000
vt 0.375000 1.000000
vt 0.125000 0.750000
vt 0.625000 0.000000
vt 0.625000 1.000000
vt 0.875000 0.750000
vt 0.375000 0.250000
vt 0.125000 0.500000
vt 0.625000 0.250000
vt 0.875000 0.500000
vt 0.375000 0.750000
vt 0.625000 0.750000
vt 0.375000 0.500000
vt 0.625000 0.500000
vt 0.375000 0.000000
vt 0.375000 1.000000
vt 0.125000 0.750000
vt 0.625000 0.000000
vt 0.625000 1.000000
vt 0.875000 0.750000
vt 0.375000 0.250000
vt 0.125000 0.500000
vt 0.625000 0.250000
vt 0.875000 0.500000
vt 0.375000 0.750000
vt 0.625000 0.750000
vt 0.375000 0.500000
vt 0.625000 0.500000
vt 0.375000 0.000000
vt 0.375000 1.000000
vt 0.125000 0.750000
vt 0.625000 0.000000
vt 0.625000 1.000000
vt 0.875000 0.750000
vt 0.375000 0.250000
vt 0.125000 0.500000
vt 0.625000 0.250000
vt 0.875000 0.500000
vt 0.375000 0.750000
vt 0.625000 0.750000
vt 0.375000 0.500000
vt 0.625000 0.500000
vt 0.375000 0.000000
vt 0.375000 1.000000
vt 0.125000 0.750000
vt 0.625000 0.000000
vt 0.625000 1.000000
vt 0.875000 0.750000
vt 0.375000 0.250000
vt 0.125000 0.500000
vt 0.625000 0.250000
vt 0.875000 0.500000
vt 0.375000 0.750000
vt 0.625000 0.750000
vt 0.375000 0.500000
vt 0.625000 0.500000
s 0
usemtl Material
f 1/1/1 5/5/1 7/9/1 3/3/1
f 4/4/2 3/3/2 7/10/2 8/12/2
f 8/13/3 7/11/3 5/6/3 6/8/3
f 6/7/4 2/2/4 4/4/4 8/14/4
f 2/2/5 1/1/5 3/3/5 4/4/5
f 6/8/6 5/6/6 1/1/6 2/2/6
f 9/15/5 13/19/5 15/23/5 11/17/5
f 12/18/2 11/17/2 15/24/2 16/26/2
f 16/27/1 15/25/1 13/20/1 14/22/1
f 14/21/3 10/16/3 12/18/3 16/28/3
f 10/16/4 9/15/4 11/17/4 12/18/4
f 14/22/6 13/20/6 9/15/6 10/16/6
f 17/29/5 21/33/5 23/37/5 19/31/5
f 20/32/2 19/31/2 23/38/2 24/40/2
f 24/41/1 23/39/1 21/34/1 22/36/1
f 22/35/3 18/30/3 20/32/3 24/42/3
f 18/30/4 17/29/4 19/31/4 20/32/4
f 22/36/6 21/34/6 17/29/6 18/30/6
f 25/43/2 29/47/2 31/51/2 27/45/2
f 28/46/3 27/45/3 31/52/3 32/54/3
f 32/55/1 31/53/1 29/48/1 30/50/1
f 30/49/6 26/44/6 28/46/6 32/56/6
f 26/44/4 25/43/4 27/45/4 28/46/4
f 30/50/5 29/48/5 25/43/5 26/44/5
f 33/57/1 37/61/1 39/65/1 35/59/1
f 36/60/2 35/59/2 39/66/2 40/68/2
f 40/69/3 39/67/3 37/62/3 38/64/3
f 38/63/4 34/58/4 36/60/4 40/70/4
f 34/58/5 33/57/5 35/59/5 36/60/5
f 38/64/6 37/62/6 33/57/6 34/58/6
f 41/71/7 42/74/7 44/79/7 43/77/7
f 43/77/8 44/79/8 48/84/8 47/83/8
f 47/83/9 48/84/9 46/82/9 45/81/9
f 45/81/10 46/82/10 42/75/10 41/72/10
f 43/78/4 47/83/4 45/81/4 41/73/4
f 48/84/1 44/80/1 42/76/1 46/82/1
f 49/85/11 50/88/11 52/93/11 51/91/11
f 51/91/12 52/93/12 56/98/12 55/97/12
f 55/97/13 56/98/13 54/96/13 53/95/13
f 53/95/14 54/96/14 50/89/14 49/86/14
f 51/92/4 55/97/4 53/95/4 49/87/4
f 56/98/1 52/94/1 50/90/1 54/96/1
f 57/99/15 58/102/15 60/107/15 59/105/15
f 59/105/16 60/107/16 64/112/16 63/111/16
f 63/111/17 64/112/17 62/110/17 61/109/17
f 61/109/18 62/110/18 58/103/18 57/100/18
f 59/106/4 63/111/4 61/109/4 57/101/4
f 64/112/1 60/108/1 58/104/1 62/110/1
f 65/113/19 66/116/19 68/121/19 67/119/19
f 67/119/20 68/121/20 72/126/20 71/125/20
f 71/125/21 72/126/21 70/124/21 69/123/21
f 69/123/22 70/124/22 66/117/22 65/114/22
f 67/120/4 71/125/4 69/123/4 65/115/4
f 72/126/1 68/122/1 66/118/1 70/124/1
