# Blender 3.4.1
# www.blender.org
mtllib piece4.mtl
o Cube.004
v 0.890223 0.890223 -1.000000
v 0.890223 1.000000 -0.890223
v 1.000000 0.890223 -0.890223
v 0.890223 -1.000000 -0.890223
v 0.890223 -0.890223 -1.000000
v 1.000000 -0.890223 -0.890223
v 1.000000 0.890223 0.890223
v 0.890223 1.000000 0.890223
v 0.890223 0.890223 1.000000
v 1.000000 -0.890223 0.890223
v 0.890223 -0.890223 1.000000
v 0.890223 -1.000000 0.890223
v -0.890223 0.890223 -1.000000
v -1.000000 0.890223 -0.890223
v -0.890223 1.000000 -0.890223
v -1.000000 -0.890223 -0.890223
v -0.890223 -0.890223 -1.000000
v -0.890223 -1.000000 -0.890223
v -1.000000 0.890223 0.890223
v -0.890223 0.890223 1.000000
v -0.890223 1.000000 0.890223
v -0.890223 -1.000000 0.890223
v -0.890223 -0.890223 1.000000
v -1.000000 -0.890223 0.890223
v 0.890223 2.895728 -1.000000
v 0.890223 3.005505 -0.890223
v 1.000000 2.895728 -0.890223
v 0.890223 1.005505 -0.890223
v 0.890223 1.115282 -1.000000
v 1.000000 1.115282 -0.890223
v 1.000000 2.895728 0.890223
v 0.890223 3.005505 0.890223
v 0.890223 2.895728 1.000000
v 1.000000 1.115282 0.890223
v 0.890223 1.115282 1.000000
v 0.890223 1.005505 0.890223
v -0.890223 2.895728 -1.000000
v -1.000000 2.895728 -0.890223
v -0.890223 3.005505 -0.890223
v -1.000000 1.115282 -0.890223
v -0.890223 1.115282 -1.000000
v -0.890223 1.005505 -0.890223
v -1.000000 2.895728 0.890223
v -0.890223 2.895728 1.000000
v -0.890223 3.005505 0.890223
v -0.890223 1.005505 0.890223
v -0.890223 1.115282 1.000000
v -1.000000 1.115282 0.890223
v 0.890223 0.890223 0.997067
v 0.890223 1.000000 1.106844
v 1.000000 0.890223 1.106844
v 0.890223 -1.000000 1.106844
v 0.890223 -0.890223 0.997067
v 1.000000 -0.890223 1.106844
v 1.000000 0.890223 2.887290
v 0.890223 1.000000 2.887290
v 0.890223 0.890223 2.997067
v 1.000000 -0.890223 2.887290
v 0.890223 -0.890223 2.997067
v 0.890223 -1.000000 2.887290
v -0.890223 0.890223 0.997067
v -1.000000 0.890223 1.106844
v -0.890223 1.000000 1.106844
v -1.000000 -0.890223 1.106844
v -0.890223 -0.890223 0.997067
v -0.890223 -1.000000 1.106844
v -1.000000 0.890223 2.887290
v -0.890223 0.890223 2.997067
v -0.890223 1.000000 2.887290
v -0.890223 -1.000000 2.887290
v -0.890223 -0.890223 2.997067
v -1.000000 -0.890223 2.887290
v 0.890223 2.895728 0.997067
v 0.890223 3.005505 1.106844
v 1.000000 2.895728 1.106844
v 0.890223 1.005505 1.106844
v 0.890223 1.115282 0.997067
v 1.000000 1.115282 1.106844
v 1.000000 2.895728 2.887290
v 0.890223 3.005505 2.887290
v 0.890223 2.895728 2.997067
v 1.000000 1.115282 2.887290
v 0.890223 1.115282 2.997067
v 0.890223 1.005505 2.887290
v -0.890223 2.895728 0.997067
v -1.000000 2.895728 1.106844
v -0.890223 3.005505 1.106844
v -1.000000 1.115282 1.106844
v -0.890223 1.115282 0.997067
v -0.890223 1.005505 1.106844
v -1.000000 2.895728 2.887290
v -0.890223 2.895728 2.997067
v -0.890223 3.005505 2.887290
v -0.890223 1.005505 2.887290
v -0.890223 1.115282 2.997067
v -1.000000 1.115282 2.887290
v 0.890223 0.890223 -2.996996
v 0.890223 -0.890223 -2.996996
v -0.890223 0.890223 -2.996996
v -0.890223 -0.890223 -2.996996
v 0.890223 2.895728 -2.996996
v 0.890223 1.115282 -2.996996
v -0.890223 2.895728 -2.996996
v -0.890223 1.115282 -2.996996
v 0.890223 0.890223 -2.999929
v 0.890223 1.000000 -2.890152
v 1.000000 0.890223 -2.890152
v 0.890223 -1.000000 -2.890152
v 0.890223 -0.890223 -2.999929
v 1.000000 -0.890223 -2.890152
v 1.000000 0.890223 -1.109706
v 0.890223 1.000000 -1.109706
v 0.890223 0.890223 -0.999929
v 1.000000 -0.890223 -1.109706
v 0.890223 -0.890223 -0.999929
v 0.890223 -1.000000 -1.109706
v -0.890223 0.890223 -2.999929
v -1.000000 0.890223 -2.890152
v -0.890223 1.000000 -2.890152
v -1.000000 -0.890223 -2.890152
v -0.890223 -0.890223 -2.999929
v -0.890223 -1.000000 -2.890152
v -1.000000 0.890223 -1.109706
v -0.890223 0.890223 -0.999929
v -0.890223 1.000000 -1.109706
v -0.890223 -1.000000 -1.109706
v -0.890223 -0.890223 -0.999929
v -1.000000 -0.890223 -1.109706
v 0.890223 2.895728 -2.999929
v 0.890223 3.005505 -2.890152
v 1.000000 2.895728 -2.890152
v 0.890223 1.005505 -2.890152
v 0.890223 1.115282 -2.999929
v 1.000000 1.115282 -2.890152
v 1.000000 2.895728 -1.109706
v 0.890223 3.005505 -1.109706
v 0.890223 2.895728 -0.999929
v 1.000000 1.115282 -1.109706
v 0.890223 1.115282 -0.999929
v 0.890223 1.005505 -1.109706
v -0.890223 2.895728 -2.999929
v -1.000000 2.895728 -2.890152
v -0.890223 3.005505 -2.890152
v -1.000000 1.115282 -2.890152
v -0.890223 1.115282 -2.999929
v -0.890223 1.005505 -2.890152
v -1.000000 2.895728 -1.109706
v -0.890223 2.895728 -0.999929
v -0.890223 3.005505 -1.109706
v -0.890223 1.005505 -1.109706
v -0.890223 1.115282 -0.999929
v -1.000000 1.115282 -1.109706
vn -0.0000 -1.0000 -0.0000
vn -1.0000 -0.0000 -0.0000
vn -0.0000 -0.0000 1.0000
vn -0.0000 1.0000 -0.0000
vn 1.0000 -0.0000 -0.0000
vn 0.5774 0.5774 -0.5774
vn 0.5774 -0.5774 -0.5774
vn 0.5774 0.5774 0.5774
vn 0.5774 -0.5774 0.5774
vn -0.5774 0.5774 -0.5774
vn -0.5774 -0.5774 -0.5774
vn -0.5774 0.5774 0.5774
vn -0.5774 -0.5774 0.5774
vn -0.7071 -0.7071 -0.0000
vn -0.0000 -0.7071 -0.7071
vn 0.7071 -0.0000 -0.7071
vn -0.7071 -0.0000 0.7071
vn 0.7071 -0.0000 0.7071
vn -0.7071 -0.0000 -0.7071
vn -0.0000 0.7071 0.7071
vn 0.7071 0.7071 -0.0000
vn -0.0000 -0.7071 0.7071
vn -0.7071 0.7071 -0.0000
vn -0.0000 0.7071 -0.7071
vn 0.7071 -0.7071 -0.0000
vn -0.0000 -0.0000 -1.0000
vn 0.5773 -0.5774 -0.5774
vn 0.5773 -0.5774 0.5774
vn -0.5773 -0.5774 -0.5774
vn -0.5773 -0.5774 0.5774
vn 0.5773 0.5774 -0.5774
vn -0.5773 0.5774 -0.5774
vn 0.5774 0.5773 0.5774
vn 0.5774 -0.5773 0.5774
vn -0.5774 0.5773 0.5774
vn -0.5774 -0.5773 0.5774
vn 0.5773 0.5774 0.5774
vn -0.5773 0.5774 0.5774
vt 0.611278 0.486278
vt 0.638722 0.513722
vt 0.625000 0.486278
vt 0.611278 0.500000
vt 0.611278 0.513722
vt 0.361278 0.513722
vt 0.361278 0.500000
vt 0.388722 0.486278
vt 0.375000 0.513722
vt 0.388722 0.513722
vt 0.611278 0.750000
vt 0.611278 0.736278
vt 0.625000 0.763722
vt 0.638722 0.736278
vt 0.611278 0.763722
vt 0.375000 0.736278
vt 0.388722 0.736278
vt 0.388722 0.763722
vt 0.361278 0.750000
vt 0.361278 0.736278
vt 0.611278 0.250000
vt 0.611278 0.263722
vt 0.611278 0.236278
vt 0.861278 0.513722
vt 0.625000 0.236278
vt 0.625000 0.263722
vt 0.125000 0.513722
vt 0.388722 0.236278
vt 0.138722 0.500000
vt 0.388722 0.263722
vt 0.138722 0.513722
vt 0.611278 0.013722
vt 0.611278 0.000000
vt 0.611278 0.986278
vt 0.861278 0.736278
vt 0.625000 0.986278
vt 0.625000 0.013722
vt 0.138722 0.736278
vt 0.388722 0.986278
vt 0.388722 0.000000
vt 0.138722 0.750000
vt 0.125000 0.736278
vt 0.388722 0.013722
vt 0.611278 0.486278
vt 0.638722 0.513722
vt 0.625000 0.486278
vt 0.611278 0.500000
vt 0.611278 0.513722
vt 0.361278 0.513722
vt 0.361278 0.500000
vt 0.388722 0.486278
vt 0.375000 0.513722
vt 0.388722 0.513722
vt 0.611278 0.750000
vt 0.611278 0.736278
vt 0.625000 0.763722
vt 0.638722 0.736278
vt 0.611278 0.763722
vt 0.375000 0.736278
vt 0.388722 0.736278
vt 0.388722 0.763722
vt 0.361278 0.750000
vt 0.361278 0.736278
vt 0.611278 0.250000
vt 0.611278 0.263722
vt 0.611278 0.236278
vt 0.861278 0.513722
vt 0.625000 0.236278
vt 0.625000 0.263722
vt 0.125000 0.513722
vt 0.388722 0.236278
vt 0.138722 0.500000
vt 0.388722 0.263722
vt 0.138722 0.513722
vt 0.611278 0.013722
vt 0.611278 0.000000
vt 0.611278 0.986278
vt 0.861278 0.736278
vt 0.625000 0.986278
vt 0.625000 0.013722
vt 0.138722 0.736278
vt 0.388722 0.986278
vt 0.388722 0.000000
vt 0.138722 0.750000
vt 0.125000 0.736278
vt 0.388722 0.013722
vt 0.611278 0.486278
vt 0.638722 0.513722
vt 0.625000 0.486278
vt 0.611278 0.500000
vt 0.611278 0.513722
vt 0.361278 0.513722
vt 0.361278 0.500000
vt 0.388722 0.486278
vt 0.375000 0.513722
vt 0.388722 0.513722
vt 0.611278 0.750000
vt 0.611278 0.736278
vt 0.625000 0.763722
vt 0.638722 0.736278
vt 0.611278 0.763722
vt 0.375000 0.736278
vt 0.388722 0.736278
vt 0.388722 0.763722
vt 0.361278 0.750000
vt 0.361278 0.736278
vt 0.611278 0.250000
vt 0.611278 0.263722
vt 0.611278 0.236278
vt 0.861278 0.513722
vt 0.625000 0.236278
vt 0.625000 0.263722
vt 0.125000 0.513722
vt 0.388722 0.236278
vt 0.138722 0.500000
vt 0.388722 0.263722
vt 0.138722 0.513722
vt 0.611278 0.013722
vt 0.611278 0.000000
vt 0.611278 0.986278
vt 0.861278 0.736278
vt 0.625000 0.986278
vt 0.625000 0.013722
vt 0.138722 0.736278
vt 0.388722 0.986278
vt 0.388722 0.000000
vt 0.138722 0.750000
vt 0.125000 0.736278
vt 0.388722 0.013722
vt 0.611278 0.486278
vt 0.638722 0.513722
vt 0.625000 0.486278
vt 0.611278 0.500000
vt 0.611278 0.513722
vt 0.361278 0.513722
vt 0.361278 0.500000
vt 0.388722 0.486278
vt 0.375000 0.513722
vt 0.388722 0.513722
vt 0.611278 0.750000
vt 0.611278 0.736278
vt 0.625000 0.763722
vt 0.638722 0.736278
vt 0.611278 0.763722
vt 0.375000 0.736278
vt 0.388722 0.736278
vt 0.388722 0.763722
vt 0.361278 0.750000
vt 0.361278 0.736278
vt 0.611278 0.250000
vt 0.611278 0.263722
vt 0.611278 0.236278
vt 0.861278 0.513722
vt 0.625000 0.236278
vt 0.625000 0.263722
vt 0.125000 0.513722
vt 0.388722 0.236278
vt 0.138722 0.500000
vt 0.388722 0.263722
vt 0.138722 0.513722
vt 0.611278 0.013722
vt 0.611278 0.000000
vt 0.611278 0.986278
vt 0.861278 0.736278
vt 0.625000 0.986278
vt 0.625000 0.013722
vt 0.138722 0.736278
vt 0.388722 0.986278
vt 0.388722 0.000000
vt 0.138722 0.750000
vt 0.125000 0.736278
vt 0.388722 0.013722
vt 0.611278 0.763722
vt 0.388722 0.763722
vt 0.611278 0.986278
vt 0.388722 0.986278
vt 0.611278 0.763722
vt 0.388722 0.763722
vt 0.611278 0.986278
vt 0.388722 0.986278
vt 0.611278 0.486278
vt 0.638722 0.513722
vt 0.625000 0.486278
vt 0.611278 0.500000
vt 0.611278 0.513722
vt 0.361278 0.513722
vt 0.361278 0.500000
vt 0.388722 0.486278
vt 0.375000 0.513722
vt 0.388722 0.513722
vt 0.611278 0.750000
vt 0.611278 0.736278
vt 0.625000 0.763722
vt 0.638722 0.736278
vt 0.611278 0.763722
vt 0.375000 0.736278
vt 0.388722 0.736278
vt 0.388722 0.763722
vt 0.361278 0.750000
vt 0.361278 0.736278
vt 0.611278 0.250000
vt 0.611278 0.263722
vt 0.611278 0.236278
vt 0.861278 0.513722
vt 0.625000 0.236278
vt 0.625000 0.263722
vt 0.125000 0.513722
vt 0.388722 0.236278
vt 0.138722 0.500000
vt 0.388722 0.263722
vt 0.138722 0.513722
vt 0.611278 0.013722
vt 0.611278 0.000000
vt 0.611278 0.986278
vt 0.861278 0.736278
vt 0.625000 0.986278
vt 0.625000 0.013722
vt 0.138722 0.736278
vt 0.388722 0.986278
vt 0.388722 0.000000
vt 0.138722 0.750000
vt 0.125000 0.736278
vt 0.388722 0.013722
vt 0.611278 0.486278
vt 0.638722 0.513722
vt 0.625000 0.486278
vt 0.611278 0.500000
vt 0.611278 0.513722
vt 0.361278 0.513722
vt 0.361278 0.500000
vt 0.388722 0.486278
vt 0.375000 0.513722
vt 0.388722 0.513722
vt 0.611278 0.750000
vt 0.611278 0.736278
vt 0.625000 0.763722
vt 0.638722 0.736278
vt 0.611278 0.763722
vt 0.375000 0.736278
vt 0.388722 0.736278
vt 0.388722 0.763722
vt 0.361278 0.750000
vt 0.361278 0.736278
vt 0.611278 0.250000
vt 0.611278 0.263722
vt 0.611278 0.236278
vt 0.861278 0.513722
vt 0.625000 0.236278
vt 0.625000 0.263722
vt 0.125000 0.513722
vt 0.388722 0.236278
vt 0.138722 0.500000
vt 0.388722 0.263722
vt 0.138722 0.513722
vt 0.611278 0.013722
vt 0.611278 0.000000
vt 0.611278 0.986278
vt 0.861278 0.736278
vt 0.625000 0.986278
vt 0.625000 0.013722
vt 0.138722 0.736278
vt 0.388722 0.986278
vt 0.388722 0.000000
vt 0.138722 0.750000
vt 0.125000 0.736278
vt 0.388722 0.013722
s 0
usemtl Material.004
f 18/31/1 4/6/1 12/20/1 22/38/1
f 24/43/2 19/32/2 14/23/2 16/28/2
f 11/18/3 9/15/3 20/34/3 23/39/3
f 2/2/4 15/24/4 21/35/4 8/14/4
f 6/10/5 3/5/5 7/12/5 10/17/5
f 1/1/6 2/3/6 3/4/6
f 4/6/7 5/7/7 6/9/7
f 7/11/8 8/13/8 9/15/8
f 10/16/9 11/19/9 12/20/9
f 13/21/10 14/23/10 15/25/10
f 16/27/11 17/29/11 18/31/11
f 19/32/12 20/33/12 21/37/12
f 22/38/13 23/41/13 24/42/13
f 18/31/14 22/38/14 24/42/14 16/27/14
f 4/6/15 18/31/15 17/29/15 5/7/15
f 3/5/16 6/10/16 5/8/16 1/1/16
f 23/40/17 20/33/17 19/32/17 24/43/17
f 9/15/18 11/18/18 10/17/18 7/12/18
f 13/22/19 17/30/19 16/28/19 14/23/19
f 8/13/20 21/36/20 20/34/20 9/15/20
f 2/2/21 8/14/21 7/12/21 3/5/21
f 22/38/22 12/20/22 11/19/22 23/41/22
f 21/37/23 15/25/23 14/23/23 19/32/23
f 15/26/24 2/3/24 1/1/24 13/22/24
f 12/20/25 4/6/25 6/10/25 10/17/25
f 17/30/26 13/22/26 1/1/26 5/8/26
f 42/74/1 28/49/1 36/63/1 46/81/1
f 48/86/2 43/75/2 38/66/2 40/71/2
f 35/61/3 33/58/3 44/77/3 47/82/3
f 26/45/4 39/67/4 45/78/4 32/57/4
f 30/53/5 27/48/5 31/55/5 34/60/5
f 25/44/6 26/46/6 27/47/6
f 28/49/27 29/50/27 30/52/27
f 31/54/8 32/56/8 33/58/8
f 34/59/28 35/62/28 36/63/28
f 37/64/10 38/66/10 39/68/10
f 40/70/29 41/72/29 42/74/29
f 43/75/12 44/76/12 45/80/12
f 46/81/30 47/84/30 48/85/30
f 42/74/14 46/81/14 48/85/14 40/70/14
f 28/49/15 42/74/15 41/72/15 29/50/15
f 27/48/16 30/53/16 29/51/16 25/44/16
f 47/83/17 44/76/17 43/75/17 48/86/17
f 33/58/18 35/61/18 34/60/18 31/55/18
f 37/65/19 41/73/19 40/71/19 38/66/19
f 32/56/20 45/79/20 44/77/20 33/58/20
f 26/45/21 32/57/21 31/55/21 27/48/21
f 46/81/22 36/63/22 35/62/22 47/84/22
f 45/80/23 39/68/23 38/66/23 43/75/23
f 39/69/24 26/46/24 25/44/24 37/65/24
f 36/63/25 28/49/25 30/53/25 34/60/25
f 41/73/26 37/65/26 25/44/26 29/51/26
f 66/117/1 52/92/1 60/106/1 70/124/1
f 72/129/2 67/118/2 62/109/2 64/114/2
f 59/104/3 57/101/3 68/120/3 71/125/3
f 50/88/4 63/110/4 69/121/4 56/100/4
f 54/96/5 51/91/5 55/98/5 58/103/5
f 49/87/6 50/89/6 51/90/6
f 52/92/7 53/93/7 54/95/7
f 55/97/8 56/99/8 57/101/8
f 58/102/9 59/105/9 60/106/9
f 61/107/10 62/109/10 63/111/10
f 64/113/11 65/115/11 66/117/11
f 67/118/12 68/119/12 69/123/12
f 70/124/13 71/127/13 72/128/13
f 66/117/14 70/124/14 72/128/14 64/113/14
f 52/92/15 66/117/15 65/115/15 53/93/15
f 51/91/16 54/96/16 53/94/16 49/87/16
f 71/126/17 68/119/17 67/118/17 72/129/17
f 57/101/18 59/104/18 58/103/18 55/98/18
f 61/108/19 65/116/19 64/114/19 62/109/19
f 56/99/20 69/122/20 68/120/20 57/101/20
f 50/88/21 56/100/21 55/98/21 51/91/21
f 70/124/22 60/106/22 59/105/22 71/127/22
f 69/123/23 63/111/23 62/109/23 67/118/23
f 63/112/24 50/89/24 49/87/24 61/108/24
f 60/106/25 52/92/25 54/96/25 58/103/25
f 65/116/26 61/108/26 49/87/26 53/94/26
f 90/160/1 76/135/1 84/149/1 94/167/1
f 96/172/2 91/161/2 86/152/2 88/157/2
f 83/147/3 81/144/3 92/163/3 95/168/3
f 74/131/4 87/153/4 93/164/4 80/143/4
f 78/139/5 75/134/5 79/141/5 82/146/5
f 73/130/31 74/132/31 75/133/31
f 76/135/7 77/136/7 78/138/7
f 79/140/8 80/142/8 81/144/8
f 82/145/28 83/148/28 84/149/28
f 85/150/32 86/152/32 87/154/32
f 88/156/11 89/158/11 90/160/11
f 91/161/12 92/162/12 93/166/12
f 94/167/30 95/170/30 96/171/30
f 90/160/14 94/167/14 96/171/14 88/156/14
f 76/135/15 90/160/15 89/158/15 77/136/15
f 75/134/16 78/139/16 77/137/16 73/130/16
f 95/169/17 92/162/17 91/161/17 96/172/17
f 81/144/18 83/147/18 82/146/18 79/141/18
f 85/151/19 89/159/19 88/157/19 86/152/19
f 80/142/20 93/165/20 92/163/20 81/144/20
f 74/131/21 80/143/21 79/141/21 75/134/21
f 94/167/22 84/149/22 83/148/22 95/170/22
f 93/166/23 87/154/23 86/152/23 91/161/23
f 87/155/24 74/132/24 73/130/24 85/151/24
f 84/149/25 76/135/25 78/139/25 82/146/25
f 89/159/26 85/151/26 73/130/26 77/137/26
f 98/174/3 97/173/3 99/175/3 100/176/3
f 102/178/3 101/177/3 103/179/3 104/180/3
f 122/211/1 108/186/1 116/200/1 126/218/1
f 128/223/2 123/212/2 118/203/2 120/208/2
f 115/198/3 113/195/3 124/214/3 127/219/3
f 106/182/4 119/204/4 125/215/4 112/194/4
f 110/190/5 107/185/5 111/192/5 114/197/5
f 105/181/6 106/183/6 107/184/6
f 108/186/7 109/187/7 110/189/7
f 111/191/33 112/193/33 113/195/33
f 114/196/34 115/199/34 116/200/34
f 117/201/10 118/203/10 119/205/10
f 120/207/11 121/209/11 122/211/11
f 123/212/35 124/213/35 125/217/35
f 126/218/36 127/221/36 128/222/36
f 122/211/14 126/218/14 128/222/14 120/207/14
f 108/186/15 122/211/15 121/209/15 109/187/15
f 107/185/16 110/190/16 109/188/16 105/181/16
f 127/220/17 124/213/17 123/212/17 128/223/17
f 113/195/18 115/198/18 114/197/18 111/192/18
f 117/202/19 121/210/19 120/208/19 118/203/19
f 112/193/20 125/216/20 124/214/20 113/195/20
f 106/182/21 112/194/21 111/192/21 107/185/21
f 126/218/22 116/200/22 115/199/22 127/221/22
f 125/217/23 119/205/23 118/203/23 123/212/23
f 119/206/24 106/183/24 105/181/24 117/202/24
f 116/200/25 108/186/25 110/190/25 114/197/25
f 121/210/26 117/202/26 105/181/26 109/188/26
f 146/254/1 132/229/1 140/243/1 150/261/1
f 152/266/2 147/255/2 142/246/2 144/251/2
f 139/241/3 137/238/3 148/257/3 151/262/3
f 130/225/4 143/247/4 149/258/4 136/237/4
f 134/233/5 131/228/5 135/235/5 138/240/5
f 129/224/6 130/226/6 131/227/6
f 132/229/27 133/230/27 134/232/27
f 135/234/37 136/236/37 137/238/37
f 138/239/34 139/242/34 140/243/34
f 141/244/10 142/246/10 143/248/10
f 144/250/29 145/252/29 146/254/29
f 147/255/38 148/256/38 149/260/38
f 150/261/36 151/264/36 152/265/36
f 146/254/14 150/261/14 152/265/14 144/250/14
f 132/229/15 146/254/15 145/252/15 133/230/15
f 131/228/16 134/233/16 133/231/16 129/224/16
f 151/263/17 148/256/17 147/255/17 152/266/17
f 137/238/18 139/241/18 138/240/18 135/235/18
f 141/245/19 145/253/19 144/251/19 142/246/19
f 136/236/20 149/259/20 148/257/20 137/238/20
f 130/225/21 136/237/21 135/235/21 131/228/21
f 150/261/22 140/243/22 139/242/22 151/264/22
f 149/260/23 143/248/23 142/246/23 147/255/23
f 143/249/24 130/226/24 129/224/24 141/245/24
f 140/243/25 132/229/25 134/233/25 138/240/25
f 145/253/26 141/245/26 129/224/26 133/231/26
