# Blender 3.4.1
# www.blender.org
mtllib piece6.mtl
o Cube.006
v -0.890223 -1.000000 0.890223
v -0.890223 0.890223 -2.998101
v -0.890223 -1.000000 -0.890223
v 1.000000 0.890223 -1.107878
v 0.890224 0.890223 -0.998100
v 0.890223 -1.000000 0.890223
v 0.890223 -1.000000 -0.890223
v -0.890223 1.000000 -2.888324
v -1.000000 0.890223 -2.888324
v -0.890223 -1.000000 -2.888324
v -0.890223 -0.890223 -2.998101
v -1.000000 -0.890223 -2.888324
v -1.000000 -0.890223 -1.107878
v -0.890223 -0.890223 -0.998100
v -0.890223 -1.000000 -1.107878
v -1.000000 0.890223 -1.107878
v -0.890223 1.000000 -1.107878
v -0.890223 0.890223 -0.998100
v -0.890223 0.890223 4.996996
v -0.890223 1.000000 4.887219
v -1.000000 0.890223 4.887219
v -0.890223 -1.000000 4.887219
v -0.890223 -0.890223 4.996996
v -1.000000 -0.890223 4.887219
v -1.000000 0.890223 3.106773
v -0.890223 1.000000 3.106773
v -0.890223 0.890223 2.996996
v -1.000000 -0.890223 3.106773
v -0.890223 -0.890223 2.996996
v -0.890223 -1.000000 3.106773
v 0.890223 0.890223 4.996996
v 1.000000 0.890223 4.887219
v 0.890223 1.000000 4.887219
v 1.000000 -0.890223 4.887219
v 0.890223 -0.890223 4.996996
v 0.890223 -1.000000 4.887219
v 1.000000 0.890223 3.106773
v 0.890223 0.890223 2.996996
v 0.890223 1.000000 3.106773
v 0.890223 -1.000000 3.106773
v 0.890223 -0.890223 2.996996
v 1.000000 -0.890223 3.106773
v -0.890223 2.895728 4.996996
v -0.890223 3.005505 4.887219
v -1.000000 2.895728 4.887219
v -0.890223 1.005505 4.887219
v -0.890223 1.115282 4.996996
v -1.000000 1.115282 4.887219
v -1.000000 2.895728 3.106773
v -0.890223 3.005505 3.106773
v -0.890223 2.895728 2.996996
v -1.000000 1.115282 3.106773
v -0.890223 1.115282 2.996996
v -0.890223 1.005505 3.106773
v 0.890223 2.895728 4.996996
v 1.000000 2.895728 4.887219
v 0.890223 3.005505 4.887219
v 1.000000 1.115282 4.887219
v 0.890223 1.115282 4.996996
v 0.890223 1.005505 4.887219
v 1.000000 2.895728 3.106773
v 0.890223 2.895728 2.996996
v 0.890223 3.005505 3.106773
v 0.890223 1.005505 3.106773
v 0.890223 1.115282 2.996996
v 1.000000 1.115282 3.106773
v -0.890223 0.890223 2.999929
v -0.890223 -1.000000 2.890152
v -0.890223 -0.890223 2.999929
v 0.890223 -1.000000 -1.107878
v 1.000000 -0.890223 -1.107878
v -0.890223 -1.000000 1.109706
v 0.890223 0.890223 2.999929
v 1.000000 0.890223 -2.888324
v 0.890223 -0.890223 2.999929
v 0.890223 -1.000000 2.890152
v 0.890223 -1.000000 1.109706
v 0.890223 1.000000 -1.107878
v 0.890224 -0.890223 -0.998100
v -0.890223 2.895728 2.999929
v -0.890223 1.115282 2.999929
v 0.890223 2.895728 2.999929
v 0.890223 1.115282 2.999929
v -0.890223 -3.006151 4.887219
v -0.890223 -3.006151 3.106773
v 0.890223 -3.006151 4.887219
v 0.890223 -3.006151 3.106773
v -0.890223 -1.110423 4.996996
v -0.890223 -1.000646 4.887219
v -1.000000 -1.110423 4.887219
v -0.890223 -3.000646 4.887219
v -0.890223 -2.890869 4.996996
v -1.000000 -2.890869 4.887219
v -1.000000 -1.110423 3.106773
v -0.890223 -1.000646 3.106773
v -0.890223 -1.110423 2.996996
v -1.000000 -2.890869 3.106773
v -0.890223 -2.890869 2.996996
v -0.890223 -3.000646 3.106773
v 0.890223 -1.110423 4.996996
v 1.000000 -1.110423 4.887219
v 0.890223 -1.000646 4.887219
v 1.000000 -2.890869 4.887219
v 0.890223 -2.890869 4.996996
v 0.890223 -3.000646 4.887219
v 1.000000 -1.110423 3.106773
v 0.890223 -1.110423 2.996996
v 0.890223 -1.000646 3.106773
v 0.890223 -3.000646 3.106773
v 0.890223 -2.890869 2.996996
v 1.000000 -2.890869 3.106773
v -0.890223 -3.006151 2.887656
v -0.890223 -3.006151 1.107211
v 0.890223 -3.006151 2.887656
v 0.890223 -3.006151 1.107210
v -0.890223 -1.110423 2.997434
v -0.890223 -1.000646 2.887656
v -1.000000 -1.110423 2.887656
v -0.890223 -3.000646 2.887656
v -0.890223 -2.890869 2.997434
v -1.000000 -2.890869 2.887656
v -1.000000 -1.110423 1.107211
v -0.890223 -1.000646 1.107211
v -0.890223 -1.110423 0.997433
v -1.000000 -2.890869 1.107211
v -0.890223 -2.890869 0.997433
v -0.890223 -3.000646 1.107211
v 0.890223 -1.110423 2.997434
v 1.000000 -1.110423 2.887656
v 0.890223 -1.000646 2.887656
v 1.000000 -2.890869 2.887656
v 0.890223 -2.890869 2.997434
v 0.890223 -3.000646 2.887656
v 1.000000 -1.110423 1.107210
v 0.890223 -1.110423 0.997433
v 0.890223 -1.000646 1.107210
v 0.890223 -3.000646 1.107210
v 0.890223 -2.890869 0.997433
v 1.000000 -2.890869 1.107210
v -0.890223 0.890223 4.996996
v -0.890223 -0.890223 4.996996
v 0.890223 0.890223 4.996996
v 0.890223 -0.890223 4.996996
v -0.890222 4.894250 4.996996
v -0.890222 5.004027 4.887219
v -0.999999 4.894250 4.887219
v -0.890222 3.004028 4.887219
v -0.890222 3.113805 4.996996
v -0.999999 3.113805 4.887219
v -1.000000 4.894250 3.106773
v -0.890223 5.004027 3.106773
v -0.890223 4.894250 2.996996
v -1.000000 3.113805 3.106773
v -0.890223 3.113805 2.996996
v -0.890223 3.004028 3.106773
v 0.890224 4.894250 4.996996
v 1.000001 4.894250 4.887219
v 0.890224 5.004027 4.887219
v 1.000001 3.113805 4.887219
v 0.890224 3.113805 4.996996
v 0.890224 3.004028 4.887219
v 1.000000 4.894250 3.106773
v 0.890223 4.894250 2.996996
v 0.890224 5.004027 3.106773
v 0.890224 3.004028 3.106773
v 0.890223 3.113805 2.996996
v 1.000000 3.113805 3.106773
v -0.890223 -3.006151 0.889078
v -0.890223 -3.006151 -0.891368
v 0.890223 -3.006151 0.889078
v 0.890223 -3.006151 -0.891368
v -0.890223 -1.110423 0.998855
v -0.890223 -1.000646 0.889078
v -1.000000 -1.110423 0.889078
v -0.890223 -3.000646 0.889078
v -0.890223 -2.890869 0.998855
v -1.000000 -2.890869 0.889078
v -1.000000 -1.110423 -0.891368
v -0.890223 -1.000646 -0.891368
v -0.890223 -1.110423 -1.001145
v -1.000000 -2.890869 -0.891368
v -0.890223 -2.890869 -1.001145
v -0.890223 -3.000646 -0.891368
v 0.890223 -1.110423 0.998855
v 1.000000 -1.110423 0.889078
v 0.890223 -1.000646 0.889078
v 1.000000 -2.890869 0.889078
v 0.890223 -2.890869 0.998855
v 0.890223 -3.000646 0.889078
v 1.000000 -1.110423 -0.891368
v 0.890223 -1.110423 -1.001145
v 0.890223 -1.000646 -0.891368
v 0.890223 -3.000646 -0.891368
v 0.890223 -2.890869 -1.001145
v 1.000000 -2.890869 -0.891368
v 0.890223 0.890223 -2.998101
v 0.890223 1.000000 -2.888324
v 0.890223 -1.000000 -2.888324
v 0.890223 -0.890223 -2.998101
v 1.000000 -0.890223 -2.888324
v -0.890223 -3.006151 -1.107878
v -0.890223 -3.006151 -2.888324
v 0.890223 -3.006151 -1.107878
v 0.890223 -3.006151 -2.888324
v -0.890223 -1.110423 -0.998100
v -0.890223 -1.000646 -1.107878
v -1.000000 -1.110423 -1.107878
v -0.890223 -3.000646 -1.107878
v -0.890223 -2.890869 -0.998100
v -1.000000 -2.890869 -1.107878
v -1.000000 -1.110423 -2.888324
v -0.890223 -1.000646 -2.888324
v -0.890223 -1.110423 -2.998101
v -1.000000 -2.890869 -2.888324
v -0.890223 -2.890869 -2.998101
v -0.890223 -3.000646 -2.888324
v 0.890224 -1.110423 -0.998100
v 1.000000 -1.110423 -1.107878
v 0.890223 -1.000646 -1.107878
v 1.000000 -2.890869 -1.107878
v 0.890224 -2.890869 -0.998100
v 0.890223 -3.000646 -1.107878
v 1.000000 -1.110423 -2.888324
v 0.890223 -1.110423 -2.998101
v 0.890223 -1.000646 -2.888324
v 0.890223 -3.000646 -2.888324
v 0.890223 -2.890869 -2.998101
v 1.000000 -2.890869 -2.888324
v -0.890223 0.890223 -0.998100
v -0.890223 -0.890223 -0.998100
v 0.890224 0.890223 -0.998100
v 0.890224 -0.890223 -0.998100
vn -0.0000 -1.0000 -0.0000
vn 0.5774 0.5773 -0.5774
vn -1.0000 -0.0000 -0.0000
vn 0.5774 -0.5773 -0.5774
vn -0.5774 0.5774 -0.5774
vn 0.5774 -0.5774 0.5773
vn -0.0000 -0.0000 -1.0000
vn 1.0000 -0.0000 -0.0000
vn -0.5774 -0.5774 -0.5774
vn 0.5774 0.5774 0.5773
vn -0.0000 1.0000 -0.0000
vn -0.5774 0.5774 0.5773
vn -0.5774 -0.5774 0.5773
vn 0.5774 0.5774 -0.5774
vn 0.5774 -0.5774 -0.5774
vn 0.7071 -0.7071 -0.0000
vn -0.0000 -0.7071 0.7071
vn -0.7071 -0.0000 0.7071
vn 0.7071 -0.0000 -0.7071
vn -0.7071 -0.0000 -0.7071
vn 0.7071 -0.0000 0.7071
vn -0.0000 0.7071 -0.7071
vn -0.7071 0.7071 -0.0000
vn -0.0000 -0.7071 -0.7071
vn 0.7071 0.7071 -0.0000
vn -0.0000 0.7071 0.7071
vn -0.7071 -0.7071 -0.0000
vn -0.0000 -0.0000 1.0000
vn -0.5773 0.5774 0.5773
vn -0.5773 -0.5774 -0.5774
vn 0.5773 0.5774 0.5773
vn 0.5773 -0.5774 -0.5774
vn 0.0206 -0.6900 0.7235
vn -0.0580 -0.0000 0.9983
vn -0.5774 0.5774 -0.5773
vn -0.5774 -0.5774 -0.5773
vn -0.5773 -0.5774 0.5773
vn 0.5773 -0.5774 0.5773
vn 0.5774 0.5774 -0.5773
vn 0.5774 -0.5774 -0.5773
vn 0.5773 0.5774 -0.5774
vt 0.361278 0.513722
vt 0.611278 0.763722
vt 0.361278 0.736278
vt 0.611278 0.236278
vt 0.611278 0.250000
vt 0.611278 0.263722
vt 0.138722 0.513722
vt 0.138722 0.736278
vt 0.625000 0.763722
vt 0.638722 0.736278
vt 0.611278 0.750000
vt 0.611278 0.736278
vt 0.361278 0.736278
vt 0.388722 0.763722
vt 0.361278 0.750000
vt 0.375000 0.736278
vt 0.388722 0.736278
vt 0.388722 0.513722
vt 0.388722 0.486278
vt 0.361278 0.500000
vt 0.361278 0.513722
vt 0.611278 0.513722
vt 0.638722 0.513722
vt 0.625000 0.486278
vt 0.611278 0.486278
vt 0.611278 0.486278
vt 0.638722 0.513722
vt 0.625000 0.486278
vt 0.611278 0.500000
vt 0.611278 0.513722
vt 0.361278 0.513722
vt 0.361278 0.500000
vt 0.388722 0.486278
vt 0.375000 0.513722
vt 0.388722 0.513722
vt 0.611278 0.750000
vt 0.611278 0.736278
vt 0.625000 0.763722
vt 0.638722 0.736278
vt 0.611278 0.763722
vt 0.375000 0.736278
vt 0.388722 0.736278
vt 0.388722 0.763722
vt 0.361278 0.750000
vt 0.361278 0.736278
vt 0.611278 0.250000
vt 0.611278 0.263722
vt 0.611278 0.236278
vt 0.861278 0.513722
vt 0.625000 0.236278
vt 0.625000 0.263722
vt 0.125000 0.513722
vt 0.388722 0.236278
vt 0.138722 0.500000
vt 0.388722 0.263722
vt 0.138722 0.513722
vt 0.611278 0.013722
vt 0.611278 0.000000
vt 0.611278 0.986278
vt 0.861278 0.736278
vt 0.625000 0.986278
vt 0.625000 0.013722
vt 0.138722 0.736278
vt 0.388722 0.986278
vt 0.388722 0.000000
vt 0.138722 0.750000
vt 0.125000 0.736278
vt 0.388722 0.013722
vt 0.611278 0.486278
vt 0.638722 0.513722
vt 0.625000 0.486278
vt 0.611278 0.500000
vt 0.611278 0.513722
vt 0.361278 0.513722
vt 0.361278 0.500000
vt 0.388722 0.486278
vt 0.375000 0.513722
vt 0.388722 0.513722
vt 0.611278 0.750000
vt 0.611278 0.736278
vt 0.625000 0.763722
vt 0.638722 0.736278
vt 0.611278 0.763722
vt 0.375000 0.736278
vt 0.388722 0.736278
vt 0.388722 0.763722
vt 0.361278 0.750000
vt 0.361278 0.736278
vt 0.611278 0.250000
vt 0.611278 0.263722
vt 0.611278 0.236278
vt 0.861278 0.513722
vt 0.625000 0.236278
vt 0.625000 0.263722
vt 0.125000 0.513722
vt 0.388722 0.236278
vt 0.138722 0.500000
vt 0.388722 0.263722
vt 0.138722 0.513722
vt 0.611278 0.013722
vt 0.611278 0.000000
vt 0.611278 0.986278
vt 0.861278 0.736278
vt 0.625000 0.986278
vt 0.625000 0.013722
vt 0.138722 0.736278
vt 0.388722 0.986278
vt 0.388722 0.000000
vt 0.138722 0.750000
vt 0.125000 0.736278
vt 0.388722 0.013722
vt 0.611278 0.486278
vt 0.361278 0.513722
vt 0.388722 0.486278
vt 0.138722 0.513722
vt 0.125000 0.513722
vt 0.388722 0.236278
vt 0.361278 0.736278
vt 0.611278 0.263722
vt 0.611278 0.013722
vt 0.388722 0.263722
vt 0.138722 0.513722
vt 0.138722 0.736278
vt 0.625000 0.236278
vt 0.625000 0.263722
vt 0.138722 0.500000
vt 0.388722 0.263722
vt 0.611278 0.486278
vt 0.388722 0.486278
vt 0.611278 0.263722
vt 0.388722 0.263722
vt 0.638722 0.513722
vt 0.638722 0.736278
vt 0.861278 0.513722
vt 0.861278 0.736278
vt 0.611278 0.486278
vt 0.638722 0.513722
vt 0.625000 0.486278
vt 0.611278 0.500000
vt 0.611278 0.513722
vt 0.361278 0.513722
vt 0.361278 0.500000
vt 0.388722 0.486278
vt 0.375000 0.513722
vt 0.388722 0.513722
vt 0.611278 0.750000
vt 0.611278 0.736278
vt 0.625000 0.763722
vt 0.638722 0.736278
vt 0.611278 0.763722
vt 0.000000 0.000000
vt 0.388722 0.736278
vt 0.388722 0.763722
vt 0.000000 0.000000
vt 0.361278 0.750000
vt 0.361278 0.736278
vt 0.611278 0.250000
vt 0.611278 0.263722
vt 0.611278 0.236278
vt 0.861278 0.513722
vt 0.625000 0.236278
vt 0.625000 0.263722
vt 0.388722 0.236278
vt 0.125000 0.513722
vt 0.138722 0.500000
vt 0.388722 0.263722
vt 0.138722 0.513722
vt 0.611278 0.013722
vt 0.000000 0.000000
vt 0.611278 0.000000
vt 0.611278 0.986278
vt 0.000000 0.000000
vt 0.861278 0.736278
vt 0.625000 0.986278
vt 0.625000 0.013722
vt 0.138722 0.736278
vt 0.388722 0.000000
vt 0.138722 0.750000
vt 0.000000 0.000000
vt 0.125000 0.736278
vt 0.388722 0.013722
vt 0.000000 0.000000
vt 0.638722 0.513722
vt 0.638722 0.736278
vt 0.861278 0.513722
vt 0.861278 0.736278
vt 0.611278 0.486278
vt 0.638722 0.513722
vt 0.625000 0.486278
vt 0.611278 0.500000
vt 0.611278 0.513722
vt 0.361278 0.513722
vt 0.361278 0.500000
vt 0.388722 0.486278
vt 0.375000 0.513722
vt 0.388722 0.513722
vt 0.611278 0.750000
vt 0.611278 0.736278
vt 0.625000 0.763722
vt 0.638722 0.736278
vt 0.611278 0.763722
vt 0.000000 0.000000
vt 0.388722 0.736278
vt 0.388722 0.763722
vt 0.000000 0.000000
vt 0.361278 0.750000
vt 0.361278 0.736278
vt 0.611278 0.250000
vt 0.611278 0.263722
vt 0.611278 0.236278
vt 0.625000 0.236278
vt 0.625000 0.263722
vt 0.388722 0.236278
vt 0.125000 0.513722
vt 0.138722 0.500000
vt 0.388722 0.263722
vt 0.138722 0.513722
vt 0.611278 0.013722
vt 0.000000 0.000000
vt 0.611278 0.000000
vt 0.611278 0.986278
vt 0.000000 0.000000
vt 0.625000 0.986278
vt 0.625000 0.013722
vt 0.138722 0.736278
vt 0.138722 0.750000
vt 0.000000 0.000000
vt 0.388722 0.013722
vt 0.125000 0.736278
vt 0.000000 0.000000
vt 0.611278 0.486278
vt 0.388722 0.486278
vt 0.611278 0.263722
vt 0.388722 0.263722
vt 0.611278 0.486278
vt 0.638722 0.513722
vt 0.625000 0.486278
vt 0.611278 0.500000
vt 0.611278 0.513722
vt 0.361278 0.513722
vt 0.361278 0.500000
vt 0.388722 0.486278
vt 0.375000 0.513722
vt 0.388722 0.513722
vt 0.611278 0.750000
vt 0.611278 0.736278
vt 0.625000 0.763722
vt 0.638722 0.736278
vt 0.611278 0.763722
vt 0.000000 0.000000
vt 0.375000 0.736278
vt 0.388722 0.736278
vt 0.388722 0.763722
vt 0.361278 0.750000
vt 0.000000 0.000000
vt 0.361278 0.736278
vt 0.611278 0.250000
vt 0.611278 0.263722
vt 0.611278 0.236278
vt 0.861278 0.513722
vt 0.625000 0.236278
vt 0.625000 0.263722
vt 0.125000 0.513722
vt 0.388722 0.236278
vt 0.138722 0.500000
vt 0.388722 0.263722
vt 0.138722 0.513722
vt 0.611278 0.013722
vt 0.000000 0.000000
vt 0.611278 0.000000
vt 0.611278 0.986278
vt 0.000000 0.000000
vt 0.861278 0.736278
vt 0.625000 0.986278
vt 0.625000 0.013722
vt 0.138722 0.736278
vt 0.388722 0.000000
vt 0.138722 0.750000
vt 0.000000 0.000000
vt 0.125000 0.736278
vt 0.388722 0.013722
vt 0.000000 0.000000
vt 0.638722 0.513722
vt 0.638722 0.736278
vt 0.861278 0.513722
vt 0.861278 0.736278
vt 0.611278 0.486278
vt 0.638722 0.513722
vt 0.625000 0.486278
vt 0.611278 0.500000
vt 0.611278 0.513722
vt 0.361278 0.513722
vt 0.361278 0.500000
vt 0.388722 0.486278
vt 0.375000 0.513722
vt 0.388722 0.513722
vt 0.611278 0.750000
vt 0.611278 0.736278
vt 0.625000 0.763722
vt 0.638722 0.736278
vt 0.611278 0.763722
vt 0.000000 0.000000
vt 0.388722 0.736278
vt 0.388722 0.763722
vt 0.000000 0.000000
vt 0.361278 0.750000
vt 0.361278 0.736278
vt 0.611278 0.250000
vt 0.611278 0.263722
vt 0.611278 0.236278
vt 0.625000 0.236278
vt 0.625000 0.263722
vt 0.388722 0.236278
vt 0.125000 0.513722
vt 0.388722 0.263722
vt 0.138722 0.513722
vt 0.611278 0.013722
vt 0.000000 0.000000
vt 0.611278 0.000000
vt 0.611278 0.986278
vt 0.000000 0.000000
vt 0.625000 0.986278
vt 0.625000 0.013722
vt 0.138722 0.736278
vt 0.138722 0.750000
vt 0.000000 0.000000
vt 0.388722 0.013722
vt 0.125000 0.736278
vt 0.000000 0.000000
vt 0.611278 0.000000
vt 0.611278 0.986278
vt 0.625000 0.986278
vt 0.625000 0.013722
vt 0.138722 0.736278
vt 0.388722 0.986278
vt 0.388722 0.000000
vt 0.138722 0.750000
vt 0.388722 0.013722
vt 0.125000 0.736278
vt 0.638722 0.513722
vt 0.638722 0.736278
vt 0.861278 0.513722
vt 0.861278 0.736278
vt 0.611278 0.486278
vt 0.638722 0.513722
vt 0.625000 0.486278
vt 0.611278 0.500000
vt 0.611278 0.513722
vt 0.361278 0.513722
vt 0.361278 0.500000
vt 0.388722 0.486278
vt 0.375000 0.513722
vt 0.388722 0.513722
vt 0.611278 0.750000
vt 0.611278 0.736278
vt 0.625000 0.763722
vt 0.638722 0.736278
vt 0.611278 0.763722
vt 0.000000 0.000000
vt 0.388722 0.736278
vt 0.388722 0.763722
vt 0.000000 0.000000
vt 0.361278 0.750000
vt 0.361278 0.736278
vt 0.611278 0.263722
vt 0.611278 0.236278
vt 0.625000 0.263722
vt 0.625000 0.236278
vt 0.388722 0.236278
vt 0.125000 0.513722
vt 0.138722 0.500000
vt 0.388722 0.263722
vt 0.138722 0.513722
vt 0.611278 0.013722
vt 0.000000 0.000000
vt 0.611278 0.000000
vt 0.611278 0.986278
vt 0.000000 0.000000
vt 0.625000 0.986278
vt 0.625000 0.013722
vt 0.138722 0.736278
vt 0.138722 0.750000
vt 0.000000 0.000000
vt 0.388722 0.013722
vt 0.125000 0.736278
vt 0.000000 0.000000
vt 0.611278 0.486278
vt 0.388722 0.486278
vt 0.611278 0.263722
vt 0.388722 0.263722
s 0
usemtl Material.006
f 6/7/1 1/1/1 3/3/1 7/8/1
f 74/120/2 196/330/2 197/333/2
f 13/18/3 16/22/3 9/12/3 12/17/3
f 198/334/4 199/337/4 200/339/4
f 9/11/5 8/9/5 2/2/5
f 71/116/6 79/126/6 70/115/6
f 11/14/7 2/2/7 196/331/7 199/335/7
f 200/338/8 74/120/8 4/4/8 71/117/8
f 12/16/9 11/15/9 10/13/9
f 5/5/10 4/4/10 78/124/10
f 36/56/1 22/31/1 30/45/1 40/63/1
f 42/68/8 37/57/8 32/48/8 34/53/8
f 29/43/7 27/40/7 38/59/7 41/64/7
f 20/27/11 33/49/11 39/60/11 26/39/11
f 24/35/3 21/30/3 25/37/3 28/42/3
f 19/26/12 20/28/12 21/29/12
f 22/31/13 23/32/13 24/34/13
f 25/36/5 26/38/5 27/40/5
f 28/41/9 29/44/9 30/45/9
f 31/46/10 32/48/10 33/50/10
f 34/52/6 35/54/6 36/56/6
f 37/57/14 38/58/14 39/62/14
f 40/63/15 41/66/15 42/67/15
f 36/56/16 40/63/16 42/67/16 34/52/16
f 22/31/17 36/56/17 35/54/17 23/32/17
f 21/30/18 24/35/18 23/33/18 19/26/18
f 41/65/19 38/58/19 37/57/19 42/68/19
f 27/40/20 29/43/20 28/42/20 25/37/20
f 31/47/21 35/55/21 34/53/21 32/48/21
f 26/38/22 39/61/22 38/59/22 27/40/22
f 20/27/23 26/39/23 25/37/23 21/30/23
f 40/63/24 30/45/24 29/44/24 41/66/24
f 39/62/25 33/50/25 32/48/25 37/57/25
f 33/51/26 20/28/26 19/26/26 31/47/26
f 30/45/27 22/31/27 24/35/27 28/42/27
f 35/55/28 31/47/28 19/26/28 23/33/28
f 60/99/1 46/74/1 54/88/1 64/106/1
f 66/111/8 61/100/8 56/91/8 58/96/8
f 53/86/7 51/83/7 62/102/7 65/107/7
f 44/70/11 57/92/11 63/103/11 50/82/11
f 48/78/3 45/73/3 49/80/3 52/85/3
f 43/69/29 44/71/29 45/72/29
f 46/74/13 47/75/13 48/77/13
f 49/79/5 50/81/5 51/83/5
f 52/84/30 53/87/30 54/88/30
f 55/89/31 56/91/31 57/93/31
f 58/95/6 59/97/6 60/99/6
f 61/100/14 62/101/14 63/105/14
f 64/106/32 65/109/32 66/110/32
f 60/99/16 64/106/16 66/110/16 58/95/16
f 46/74/17 60/99/17 59/97/17 47/75/17
f 45/73/18 48/78/18 47/76/18 43/69/18
f 65/108/19 62/101/19 61/100/19 66/111/19
f 51/83/20 53/86/20 52/85/20 49/80/20
f 55/90/21 59/98/21 58/96/21 56/91/21
f 50/81/22 63/104/22 62/102/22 51/83/22
f 44/70/23 50/82/23 49/80/23 45/73/23
f 64/106/24 54/88/24 53/87/24 65/109/24
f 63/105/25 57/93/25 56/91/25 61/100/25
f 57/94/26 44/71/26 43/69/26 55/90/26
f 54/88/27 46/74/27 48/78/27 52/85/27
f 59/98/28 55/90/28 43/69/28 47/76/28
f 76/122/1 68/113/1 72/118/1 77/123/1
f 16/22/18 13/18/18 14/19/18 18/25/18
f 199/336/19 196/330/19 74/120/19 200/338/19
f 15/21/17 70/115/17 79/126/17 14/20/17
f 70/115/16 198/334/16 200/339/16 71/116/16
f 75/121/28 73/119/28 67/112/28 69/114/28
f 83/131/28 82/130/28 80/128/28 81/129/28
f 84/132/11 86/134/11 87/135/11 85/133/11
f 111/181/8 106/168/8 101/159/8 103/163/8
f 89/137/11 102/160/11 108/173/11 95/149/11
f 93/145/3 90/140/3 94/147/3 97/152/3
f 88/136/29 89/138/29 90/139/29
f 91/141/13 92/142/13 93/144/13
f 94/146/5 95/148/5 96/150/5
f 100/157/31 101/159/31 102/161/31
f 103/164/6 104/165/6 105/167/6
f 106/168/14 107/170/14 108/175/14
f 109/176/15 110/178/15 111/180/15
f 105/167/16 109/176/16 111/180/16 103/164/16
f 90/140/18 93/145/18 92/143/18 88/136/18
f 110/177/19 107/170/19 106/168/19 111/181/19
f 96/150/20 98/153/20 97/152/20 94/147/20
f 100/158/21 104/166/21 103/163/21 101/159/21
f 95/148/22 108/174/22 107/171/22 96/150/22
f 89/137/23 95/149/23 94/147/23 90/140/23
f 109/176/24 99/156/24 98/155/24 110/178/24
f 108/175/25 102/161/25 101/159/25 106/168/25
f 102/162/26 89/138/26 88/136/26 100/158/26
f 99/156/27 91/141/27 93/145/27 97/152/27
f 104/166/28 100/158/28 88/136/28 92/143/28
f 104/166/33 92/143/33 91/141/33 84/132/33 86/134/33 105/167/33 103/164/33
f 111/182/34 106/169/34 107/172/34 96/151/34 98/154/34 110/179/34
f 112/183/11 114/185/11 115/186/11 113/184/11
f 139/228/8 134/218/8 129/210/8 131/213/8
f 121/196/3 118/191/3 122/198/3 125/203/3
f 116/187/12 117/189/12 118/190/12
f 119/192/13 120/193/13 121/195/13
f 122/197/35 123/199/35 124/201/35
f 128/208/10 129/210/10 130/211/10
f 131/214/6 132/215/6 133/217/6
f 134/218/14 135/220/14 136/224/14
f 137/225/15 138/226/15 139/229/15
f 133/217/16 137/225/16 139/229/16 131/214/16
f 118/191/18 121/196/18 120/194/18 116/187/18
f 124/201/20 126/204/20 125/203/20 122/198/20
f 128/209/21 132/216/21 131/213/21 129/210/21
f 123/199/22 136/223/22 135/221/22 124/201/22
f 117/188/23 123/200/23 122/198/23 118/191/23
f 137/225/24 127/207/24 126/206/24 138/226/24
f 136/224/25 130/211/25 129/210/25 134/218/25
f 130/212/26 117/189/26 116/187/26 128/209/26
f 127/207/27 119/192/27 121/196/27 125/203/27
f 132/216/28 128/209/28 116/187/28 120/194/28
f 132/216/33 120/194/33 119/192/33 112/183/33 114/185/33 133/217/33 131/214/33
f 139/230/34 134/219/34 135/222/34 124/202/34 126/205/34 138/227/34
f 127/207/36 125/203/36 126/206/36
f 99/156/9 97/152/9 98/155/9
f 143/234/28 142/233/28 140/231/28 141/232/28
f 167/281/8 162/268/8 157/259/8 159/264/8
f 145/236/11 158/260/11 164/273/11 151/248/11
f 149/244/3 146/239/3 150/246/3 153/252/3
f 144/235/29 145/237/29 146/238/29
f 147/240/37 148/241/37 149/243/37
f 150/245/5 151/247/5 152/249/5
f 153/251/9 154/254/9 155/256/9
f 156/257/31 157/259/31 158/261/31
f 159/263/38 160/265/38 161/267/38
f 162/268/39 163/270/39 164/275/39
f 165/276/40 166/278/40 167/280/40
f 161/267/16 165/276/16 167/280/16 159/263/16
f 147/240/17 161/267/17 160/265/17 148/241/17
f 146/239/18 149/244/18 148/242/18 144/235/18
f 166/277/19 163/270/19 162/268/19 167/281/19
f 152/249/20 154/253/20 153/252/20 150/246/20
f 156/258/21 160/266/21 159/264/21 157/259/21
f 151/247/22 164/274/22 163/271/22 152/249/22
f 145/236/23 151/248/23 150/246/23 146/239/23
f 165/276/24 155/256/24 154/254/24 166/278/24
f 164/275/25 158/261/25 157/259/25 162/268/25
f 158/262/26 145/237/26 144/235/26 156/258/26
f 155/256/27 147/240/27 149/244/27 153/252/27
f 160/266/28 156/258/28 144/235/28 148/242/28
f 167/282/34 162/269/34 163/272/34 152/250/34 154/255/34 166/279/34
f 168/283/11 170/285/11 171/286/11 169/284/11
f 195/327/8 190/317/8 185/310/8 187/313/8
f 177/296/3 174/291/3 178/298/3 181/303/3
f 172/287/12 173/289/12 174/290/12
f 175/292/13 176/293/13 177/295/13
f 178/297/5 179/299/5 180/301/5
f 184/308/10 185/310/10 186/311/10
f 190/317/41 191/319/41 192/323/41
f 193/324/32 194/325/32 195/328/32
f 189/316/16 193/324/16 195/328/16 187/314/16
f 174/291/18 177/296/18 176/294/18 172/287/18
f 180/301/20 182/304/20 181/303/20 178/298/20
f 184/309/21 188/315/21 187/313/21 185/310/21
f 179/299/22 192/322/22 191/320/22 180/301/22
f 173/288/23 179/300/23 178/298/23 174/291/23
f 192/323/25 186/311/25 185/310/25 190/317/25
f 186/312/26 173/289/26 172/287/26 184/309/26
f 183/307/27 175/292/27 177/296/27 181/303/27
f 188/315/33 176/294/33 175/292/33 168/283/33 170/285/33 189/316/33 187/314/33
f 195/329/34 190/318/34 191/321/34 180/302/34 182/305/34 194/326/34
f 183/307/9 181/303/9 182/306/9
f 2/2/20 11/14/20 12/17/20 9/12/20
f 5/6/21 79/127/21 71/117/21 4/4/21
f 8/9/22 197/332/22 196/331/22 2/2/22
f 17/23/23 8/10/23 9/12/23 16/22/23
f 198/334/24 10/13/24 11/15/24 199/337/24
f 197/333/25 78/124/25 4/4/25 74/120/25
f 78/125/26 17/24/26 18/25/26 5/6/26
f 10/13/27 15/21/27 13/18/27 12/17/27
f 201/340/11 203/342/11 204/343/11 202/341/11
f 228/384/8 223/374/8 218/366/8 220/369/8
f 210/353/3 207/348/3 211/355/3 214/360/3
f 205/344/12 206/346/12 207/347/12
f 208/349/13 209/350/13 210/352/13
f 211/354/5 212/356/5 213/358/5
f 220/370/6 221/371/6 222/373/6
f 223/374/2 224/376/2 225/380/2
f 226/381/4 227/382/4 228/385/4
f 222/373/16 226/381/16 228/385/16 220/370/16
f 207/348/18 210/353/18 209/351/18 205/344/18
f 213/358/20 215/361/20 214/360/20 211/355/20
f 217/365/21 221/372/21 220/369/21 218/366/21
f 212/356/22 225/379/22 224/377/22 213/358/22
f 206/345/23 212/357/23 211/355/23 207/348/23
f 226/381/24 216/364/24 215/363/24 227/382/24
f 225/380/25 219/368/25 218/366/25 223/374/25
f 219/367/26 206/346/26 205/344/26 217/365/26
f 216/364/27 208/349/27 210/353/27 214/360/27
f 221/372/28 217/365/28 205/344/28 209/351/28
f 221/372/33 209/351/33 208/349/33 201/340/33 203/342/33 222/373/33 220/370/33
f 228/386/34 223/375/34 224/378/34 213/359/34 215/362/34 227/383/34
f 216/364/9 214/360/9 215/363/9
f 232/390/28 231/389/28 229/387/28 230/388/28
f 219/368/10 217/365/10 218/366/10
f 8/10/11 17/23/11 78/125/11 197/333/11
f 17/24/12 16/22/12 18/25/12
l 86 104
