# Blender 3.4.1
# www.blender.org
mtllib pot.mtl
o Cube
v 2.059788 2.347579 -2.059788
v 1.530942 -1.918442 -1.530942
v 2.059788 2.347579 2.059788
v 1.530942 -1.918442 1.530942
v -2.059788 2.347579 -2.059788
v -1.530942 -1.918442 -1.530942
v -2.059788 2.347579 2.059788
v -1.530942 -1.918442 1.530942
v -2.446499 -1.918442 0.000000
v 2.845917 2.347579 0.000000
v -2.975346 2.347579 0.000000
v 2.317070 -1.918442 0.000000
v 0.000000 -1.918442 -2.379871
v 0.000000 2.347579 2.871513
v 0.000000 -1.918442 2.342666
v 0.000000 2.347579 -2.908718
v 0.003213 2.651207 3.442717
v -2.465648 2.651207 2.469785
v 3.414327 2.651207 0.000924
v 2.472074 2.651207 2.469785
v -3.563034 2.651207 0.000924
v -2.465648 2.651207 -2.467937
v 0.003213 2.651207 -3.485464
v 2.472074 2.651207 -2.467937
v 0.003213 3.663233 -3.485464
v 2.472074 3.663233 -2.467937
v -2.465648 3.663233 -2.467937
v -3.563034 3.663233 0.000924
v 2.472074 3.663233 2.469785
v 0.003213 3.663233 3.442717
v -2.465648 3.663233 2.469785
v 3.414327 3.663233 0.000924
v -0.000194 3.663233 -2.873812
v 2.034836 3.663233 -2.035087
v -2.035225 3.663233 -2.035087
v -2.939777 3.663233 -0.000056
v 2.034836 3.663233 2.034975
v -0.000194 3.663233 2.836942
v -2.035225 3.663233 2.034975
v 2.811515 3.663233 -0.000056
v -0.000194 2.648276 -2.873812
v 2.034836 2.648276 -2.035087
v -2.035225 2.648276 -2.035087
v -2.939777 2.648276 -0.000056
v 2.034836 2.648276 2.034975
v -0.000194 2.648276 2.836942
v -2.035225 2.648276 2.034975
v 2.811515 2.648276 -0.000056
v -0.002736 2.349298 -2.417585
v 1.708703 2.349298 -1.712226
v -1.714175 2.349298 -1.712226
v -2.474894 2.349298 -0.000787
v 1.708703 2.349298 1.710653
v -0.002736 2.349298 2.385099
v -1.714175 2.349298 1.710653
v 2.361882 2.349298 -0.000787
v -0.005597 -1.039128 -1.903957
v 1.341537 -1.039128 -1.348744
v -1.352732 -1.039128 -1.348744
v -1.951521 -1.039128 -0.001609
v 1.341537 -1.039128 1.345525
v -0.005597 -1.039128 1.876406
v -1.352732 -1.039128 1.345525
v 1.855677 -1.039128 -0.001609
vn 0.4639 -0.8680 -0.1771
vn -0.4081 -0.1372 0.9026
vn -0.8824 -0.1373 -0.4500
vn 0.1816 -0.8687 0.4608
vn 0.9074 -0.1371 0.3973
vn 0.4234 -0.1373 -0.8955
vn 0.9074 -0.1371 -0.3973
vn -0.1889 -0.8685 -0.4583
vn -0.8824 -0.1373 0.4500
vn -0.1822 -0.8678 0.4623
vn 0.1882 -0.8695 -0.4567
vn 0.9343 -0.0000 -0.3566
vn -0.4234 -0.1373 -0.8955
vn -0.0000 -1.0000 -0.0000
vn 0.4081 -0.1372 0.9026
vn -0.4495 -0.8706 0.1998
vn -0.4500 -0.8704 -0.2000
vn 0.4635 -0.8683 0.1769
vn -0.0000 1.0000 -0.0000
vn -0.3666 -0.0000 0.9304
vn 0.9343 -0.0000 0.3566
vn 0.3666 -0.0000 0.9304
vn -0.3810 -0.0000 -0.9246
vn 0.3810 -0.0000 -0.9246
vn -0.9138 -0.0000 0.4062
vn -0.9138 -0.0000 -0.4062
vn -0.9343 -0.0000 -0.3566
vn -0.2200 0.8165 0.5338
vn -0.3666 -0.0000 -0.9304
vn 0.3810 -0.0000 0.9246
vn 0.3666 -0.0000 -0.9304
vn 0.9138 -0.0000 -0.4062
vn 0.9138 -0.0000 0.4062
vn -0.3810 -0.0000 0.9246
vn -0.9343 -0.0000 0.3566
vn 0.3631 0.1380 -0.9215
vn -0.5420 0.8146 0.2068
vn -0.5415 0.8149 -0.2067
vn -0.2122 0.8155 -0.5384
vn 0.2207 0.8152 0.5355
vn 0.2128 0.8143 -0.5400
vn 0.5257 0.8180 -0.2337
vn 0.5262 0.8176 0.2339
vn 0.9048 0.1399 -0.4022
vn 0.9048 0.1397 0.4022
vn -0.3773 0.1391 0.9156
vn -0.9253 0.1381 0.3531
vn -0.9253 0.1383 -0.3531
vn -0.3631 0.1386 -0.9214
vn 0.3774 0.1385 0.9156
vt 0.625000 0.500000
vt 0.375000 0.500000
vt 0.625000 0.750000
vt 0.375000 0.750000
vt 0.625000 0.250000
vt 0.375000 0.250000
vt 0.625000 1.000000
vt 0.625000 0.000000
vt 0.375000 0.000000
vt 0.375000 1.000000
vt 0.375000 0.125000
vt 0.625000 0.625000
vt 0.625000 0.125000
vt 0.375000 0.625000
vt 0.375000 0.375000
vt 0.625000 0.875000
vt 0.375000 0.875000
vt 0.625000 0.375000
vt 0.625000 0.875000
vt 0.625000 1.000000
vt 0.625000 0.000000
vt 0.625000 0.625000
vt 0.625000 0.750000
vt 0.625000 0.125000
vt 0.625000 0.250000
vt 0.625000 0.375000
vt 0.625000 0.500000
vt 0.625000 0.375000
vt 0.625000 0.500000
vt 0.625000 0.250000
vt 0.625000 0.125000
vt 0.625000 0.750000
vt 0.625000 0.875000
vt 0.625000 1.000000
vt 0.625000 0.000000
vt 0.625000 0.625000
vt 0.625000 0.375000
vt 0.625000 0.500000
vt 0.625000 0.250000
vt 0.625000 0.125000
vt 0.625000 0.750000
vt 0.625000 0.875000
vt 0.625000 1.000000
vt 0.625000 0.000000
vt 0.625000 0.625000
vt 0.625000 0.375000
vt 0.625000 0.500000
vt 0.625000 0.250000
vt 0.625000 0.125000
vt 0.625000 0.750000
vt 0.625000 0.875000
vt 0.625000 1.000000
vt 0.625000 0.000000
vt 0.625000 0.625000
vt 0.625000 0.375000
vt 0.625000 0.500000
vt 0.625000 0.250000
vt 0.625000 0.125000
vt 0.625000 0.750000
vt 0.625000 0.875000
vt 0.625000 1.000000
vt 0.625000 0.000000
vt 0.625000 0.625000
vt 0.625000 0.375000
vt 0.625000 0.500000
vt 0.625000 0.250000
vt 0.625000 0.125000
vt 0.625000 0.750000
vt 0.625000 0.875000
vt 0.625000 1.000000
vt 0.625000 0.000000
vt 0.625000 0.625000
s 0
usemtl Material
f 10/12/1 1/1/1 24/27/1 19/22/1
f 15/17/2 14/16/2 7/7/2 8/10/2
f 9/11/3 11/13/3 5/5/3 6/6/3
f 14/16/4 3/3/4 20/23/4 17/19/4
f 12/14/5 10/12/5 3/3/5 4/4/5
f 13/15/6 16/18/6 1/1/6 2/2/6
f 2/2/7 1/1/7 10/12/7 12/14/7
f 16/18/8 5/5/8 22/25/8 23/26/8
f 8/9/9 7/8/9 11/13/9 9/11/9
f 7/7/10 14/16/10 17/19/10 18/20/10
f 1/1/11 16/18/11 23/26/11 24/27/11
f 19/22/12 24/27/12 26/29/12 32/36/12
f 6/6/13 5/5/13 16/18/13 13/15/13
f 9/11/14 6/6/14 13/15/14 2/2/14 12/14/14 4/4/14 15/17/14 8/10/14
f 4/4/15 3/3/15 14/16/15 15/17/15
f 11/13/16 7/8/16 18/21/16 21/24/16
f 5/5/17 11/13/17 21/24/17 22/25/17
f 3/3/18 10/12/18 19/22/18 20/23/18
f 27/30/19 28/31/19 36/40/19 35/39/19
f 18/20/20 17/19/20 30/33/20 31/34/20
f 20/23/21 19/22/21 32/36/21 29/32/21
f 17/19/22 20/23/22 29/32/22 30/33/22
f 23/26/23 22/25/23 27/30/23 25/28/23
f 24/27/24 23/26/24 25/28/24 26/29/24
f 21/24/25 18/21/25 31/35/25 28/31/25
f 22/25/26 21/24/26 28/31/26 27/30/26
f 37/41/27 40/45/27 48/54/27 45/50/27
f 26/29/19 25/28/19 33/37/19 34/38/19
f 32/36/19 26/29/19 34/38/19 40/45/19
f 29/32/19 32/36/19 40/45/19 37/41/19
f 30/33/19 29/32/19 37/41/19 38/42/19
f 25/28/19 27/30/19 35/39/19 33/37/19
f 31/34/19 30/33/19 38/42/19 39/43/19
f 28/31/19 31/35/19 39/44/19 36/40/19
f 42/47/28 41/46/28 49/55/28 50/56/28
f 38/42/29 37/41/29 45/50/29 46/51/29
f 33/37/30 35/39/30 43/48/30 41/46/30
f 39/43/31 38/42/31 46/51/31 47/52/31
f 36/40/32 39/44/32 47/53/32 44/49/32
f 35/39/33 36/40/33 44/49/33 43/48/33
f 34/38/34 33/37/34 41/46/34 42/47/34
f 40/45/35 34/38/35 42/47/35 48/54/35
f 55/61/36 54/60/36 62/69/36 63/70/36
f 48/54/37 42/47/37 50/56/37 56/63/37
f 45/50/38 48/54/38 56/63/38 53/59/38
f 46/51/39 45/50/39 53/59/39 54/60/39
f 41/46/40 43/48/40 51/57/40 49/55/40
f 47/52/41 46/51/41 54/60/41 55/61/41
f 44/49/42 47/53/42 55/62/42 52/58/42
f 43/48/43 44/49/43 52/58/43 51/57/43
f 62/69/19 61/68/19 64/72/19 58/65/19 57/64/19 59/66/19 60/67/19 63/71/19
f 52/58/44 55/62/44 63/71/44 60/67/44
f 51/57/45 52/58/45 60/67/45 59/66/45
f 50/56/46 49/55/46 57/64/46 58/65/46
f 56/63/47 50/56/47 58/65/47 64/72/47
f 53/59/48 56/63/48 64/72/48 61/68/48
f 54/60/49 53/59/49 61/68/49 62/69/49
f 49/55/50 51/57/50 59/66/50 57/64/50
