# Blender 3.4.1
# www.blender.org
mtllib shelf.mtl
o Cube
v 1.000000 0.098592 -4.117966
v 1.000000 -0.098592 -4.117966
v 1.000000 0.098592 4.117966
v 1.000000 -0.098592 4.117966
v -1.000000 0.098592 -4.117966
v -1.000000 -0.098592 -4.117966
v -1.000000 0.098592 4.117966
v -1.000000 -0.098592 4.117966
vn -0.0000 1.0000 -0.0000
vn -0.0000 -0.0000 1.0000
vn -1.0000 -0.0000 -0.0000
vn -0.0000 -1.0000 -0.0000
vn 1.0000 -0.0000 -0.0000
vn -0.0000 -0.0000 -1.0000
vt 0.625000 0.500000
vt 0.375000 0.500000
vt 0.625000 0.750000
vt 0.375000 0.750000
vt 0.875000 0.500000
vt 0.625000 0.250000
vt 0.125000 0.500000
vt 0.375000 0.250000
vt 0.875000 0.750000
vt 0.625000 1.000000
vt 0.625000 0.000000
vt 0.375000 1.000000
vt 0.375000 0.000000
vt 0.125000 0.750000
s 0
usemtl Material
f 1/1/1 5/5/1 7/9/1 3/3/1
f 4/4/2 3/3/2 7/10/2 8/12/2
f 8/13/3 7/11/3 5/6/3 6/8/3
f 6/7/4 2/2/4 4/4/4 8/14/4
f 2/2/5 1/1/5 3/3/5 4/4/5
f 6/8/6 5/6/6 1/1/6 2/2/6
o Cube.001
v -0.973440 -0.443057 3.007686
v -0.973440 -0.443057 2.637909
v -0.188491 -0.100990 3.007686
v -0.994716 -0.812221 3.007686
v -0.994716 -0.812221 2.637909
v 0.181286 -0.100990 3.007686
v 0.181286 -0.100990 2.637909
v -0.188491 -0.100990 2.637909
vn -0.9983 0.0575 -0.0000
vn -0.3995 0.9167 -0.0000
vn -0.0000 -0.0000 1.0000
vn 0.5175 -0.8557 -0.0000
vn -0.0000 1.0000 -0.0000
vn -0.0000 -0.0000 -1.0000
vt 0.125000 0.750000
vt 0.375000 0.000000
vt 0.375000 1.000000
vt 0.125000 0.500000
vt 0.375000 0.250000
vt 0.625000 0.000000
vt 0.625000 1.000000
vt 0.875000 0.750000
vt 0.375000 0.750000
vt 0.375000 0.500000
vt 0.625000 0.750000
vt 0.625000 0.500000
vt 0.875000 0.500000
vt 0.625000 0.250000
s 0
usemtl Material
f 10/18/7 13/24/7 12/23/7 9/15/7
f 9/16/8 11/20/8 16/28/8 10/19/8
f 12/23/9 14/25/9 11/21/9 9/17/9
f 13/24/10 15/26/10 14/25/10 12/23/10
f 15/26/11 16/27/11 11/22/11 14/25/11
f 10/19/12 16/28/12 15/26/12 13/24/12
o Cube.002
v -0.973440 -0.443057 -2.748516
v -0.973440 -0.443057 -3.118293
v -0.137774 -0.100990 -2.748516
v -0.994716 -0.812221 -2.748516
v -0.994716 -0.812221 -3.118293
v 0.232003 -0.100990 -2.748516
v 0.232003 -0.100990 -3.118293
v -0.137774 -0.100990 -3.118293
vn -0.9983 0.0575 -0.0000
vn -0.3788 0.9255 -0.0000
vn -0.0000 -0.0000 1.0000
vn 0.5016 -0.8651 -0.0000
vn -0.0000 1.0000 -0.0000
vn -0.0000 -0.0000 -1.0000
vt 0.125000 0.750000
vt 0.375000 0.000000
vt 0.375000 1.000000
vt 0.125000 0.500000
vt 0.375000 0.250000
vt 0.625000 0.000000
vt 0.625000 1.000000
vt 0.875000 0.750000
vt 0.375000 0.750000
vt 0.375000 0.500000
vt 0.625000 0.750000
vt 0.625000 0.500000
vt 0.875000 0.500000
vt 0.625000 0.250000
s 0
usemtl Material.001
f 18/32/13 21/38/13 20/37/13 17/29/13
f 17/30/14 19/34/14 24/42/14 18/33/14
f 20/37/15 22/39/15 19/35/15 17/31/15
f 21/38/16 23/40/16 22/39/16 20/37/16
f 23/40/17 24/41/17 19/36/17 22/39/17
f 18/33/18 24/42/18 23/40/18 21/38/18
