# Blender 3.4.1
# www.blender.org
mtllib shorts.mtl
o Cube
v 0.664160 -0.057671 -1.229454
v 0.664160 0.016146 -1.229454
v 0.665217 -0.057671 1.214514
v 0.665217 0.016146 1.214514
v -0.374853 -0.057671 -1.140943
v -0.374853 0.016146 -1.140943
v -0.375910 -0.057671 1.155883
v -0.375910 0.016146 1.155883
v 0.666042 0.016146 -0.002517
v 0.666042 -0.057671 -0.001025
v 2.028073 -0.052314 1.311768
v 2.028073 0.010789 1.311768
v 2.120687 -0.052314 0.239718
v 2.120803 0.010789 0.238370
v 2.015850 -0.051449 -1.362233
v 2.015850 0.009925 -1.362233
v 2.115800 0.009925 -0.311876
v 2.115927 -0.051449 -0.310551
vn -0.0000 -1.0000 -0.0000
vn -0.0562 -0.0000 0.9984
vn -1.0000 -0.0000 -0.0005
vn -0.0000 1.0000 -0.0000
vn 0.2087 0.0206 0.9778
vn -0.0849 -0.0000 -0.9964
vn 0.9963 -0.0000 0.0861
vn 0.1633 -0.0206 -0.9864
vn 0.0038 1.0000 0.0002
vn -0.0712 -0.0000 0.9975
vn 0.0038 -1.0000 0.0002
vn 0.9955 -0.0000 -0.0947
vn -0.0978 -0.0000 -0.9952
vn 0.0044 -1.0000 -0.0002
vn 0.0044 1.0000 -0.0002
vt 0.625000 0.500000
vt 0.375000 0.500000
vt 0.625000 0.750000
vt 0.375000 0.750000
vt 0.875000 0.500000
vt 0.625000 0.250000
vt 0.125000 0.500000
vt 0.375000 0.250000
vt 0.875000 0.750000
vt 0.625000 1.000000
vt 0.625000 0.000000
vt 0.375000 1.000000
vt 0.375000 0.000000
vt 0.125000 0.750000
vt 0.375000 0.624735
vt 0.625000 0.624892
vt 0.625000 0.750000
vt 0.375000 0.750000
vt 0.625000 0.624892
vt 0.375000 0.624735
vt 0.625000 0.500000
vt 0.375000 0.500000
vt 0.375000 0.624735
vt 0.625000 0.624892
s 0
usemtl Material
f 1/1/1 10/16/1 3/3/1 7/9/1 5/5/1
f 4/4/2 8/12/2 7/10/2 3/3/2
f 8/13/3 6/8/3 5/6/3 7/11/3
f 6/7/4 8/14/4 4/4/4 9/15/4 2/2/4
f 10/16/5 18/24/5 17/23/5 9/15/5
f 6/8/6 2/2/6 1/1/6 5/6/6
f 14/20/7 12/18/7 11/17/7 13/19/7
f 9/15/8 14/20/8 13/19/8 10/16/8
f 4/4/9 12/18/9 14/20/9 9/15/9
f 3/3/10 11/17/10 12/18/10 4/4/10
f 10/16/11 13/19/11 11/17/11 3/3/11
f 16/22/12 17/23/12 18/24/12 15/21/12
f 2/2/13 16/22/13 15/21/13 1/1/13
f 1/1/14 15/21/14 18/24/14 10/16/14
f 9/15/15 17/23/15 16/22/15 2/2/15
