# Blender 3.4.1
# www.blender.org
mtllib standing_lamp.mtl
o Cube
v 0.767108 0.129627 -0.787601
v 0.767108 -0.060316 -0.787601
v 0.767108 0.129627 0.788658
v 0.767108 -0.060316 0.788658
v -0.769030 0.129627 -0.787601
v -0.769030 -0.060316 -0.787601
v -0.769030 0.129627 0.788658
v -0.769030 -0.060316 0.788658
v -0.000961 -0.060316 -1.067392
v -0.000961 0.129627 1.081919
v -0.000961 -0.060316 1.081919
v -0.000961 0.129627 -1.067392
v -1.095482 -0.060316 0.000529
v 1.071438 0.129627 0.000529
v -1.095482 0.129627 0.000529
v 1.071438 -0.060316 0.000529
v -0.000961 -0.060316 0.000529
v -0.002156 0.309233 0.615173
v -0.438197 0.309233 0.448686
v 0.606656 0.309233 0.001257
v 0.433884 0.309233 0.448686
v -0.623527 0.309233 0.001257
v -0.438197 0.309233 -0.446173
v -0.002156 0.309233 -0.605013
v 0.433884 0.309233 -0.446173
v -0.118035 -0.102632 0.118035
v -0.118035 0.102632 0.118035
v -0.118035 -0.102632 -0.118035
v -0.118035 0.102632 -0.118035
v 0.118035 -0.102632 0.118035
v 0.118035 0.102632 0.118035
v 0.118035 -0.102632 -0.118035
v 0.118035 0.102632 -0.118035
v -0.003531 0.309233 -0.073374
v 0.050747 0.309233 -0.053602
v -0.080878 0.309233 0.002094
v -0.057809 0.309233 -0.053602
v 0.072253 0.309233 0.002094
v 0.050747 0.309233 0.057789
v -0.003531 0.309233 0.078513
v -0.057809 0.309233 0.057789
v -0.003491 4.841763 -0.097836
v 0.070241 4.841763 -0.071661
v -0.108561 4.841763 0.002072
v -0.077223 4.841763 -0.071661
v 0.099456 4.841763 0.002072
v 0.070241 4.841763 0.075804
v -0.003491 4.841763 0.103239
v -0.077223 4.841763 0.075804
v 0.686951 5.975176 -0.686951
v 0.594704 5.898214 0.584292
v 1.180915 4.247800 -1.180915
v 0.594704 5.898214 -0.585861
v 0.686951 5.975176 0.686951
v -0.584429 5.898214 0.584292
v 1.180915 4.247800 1.180915
v -0.584429 5.898214 -0.585861
v -1.096947 4.248169 -1.098379
v 1.107222 4.248169 -1.098379
v 1.107222 4.248169 1.096810
v -1.096947 4.248169 1.096810
v -0.686951 5.975176 -0.686951
v -1.180915 4.247800 -1.180915
v -0.686951 5.975176 0.686951
v -1.180915 4.247800 1.180915
vn -0.1360 0.9245 0.3561
vn -0.3567 -0.0000 0.9342
vn -0.9239 -0.0000 -0.3827
vn -0.0000 -1.0000 -0.0000
vn 0.9329 -0.0000 0.3602
vn 0.3423 -0.0000 -0.9396
vn -0.3423 -0.0000 -0.9396
vn 0.3567 -0.0000 0.9342
vn 0.1307 0.9243 -0.3587
vn 0.9329 -0.0000 -0.3602
vn -0.9239 -0.0000 0.3827
vn 0.3568 0.9240 -0.1378
vn -0.1309 0.9240 -0.3593
vn 0.1357 0.9248 0.3555
vn -0.3521 0.9245 0.1458
vn -0.3517 0.9247 -0.1457
vn 0.3572 0.9238 0.1379
vn -0.0000 1.0000 -0.0000
vn -1.0000 -0.0000 -0.0000
vn -0.0000 -0.0000 -1.0000
vn 1.0000 -0.0000 -0.0000
vn -0.0000 -0.0000 1.0000
vn 0.9310 -0.0055 -0.3649
vn 0.3521 -0.0052 0.9359
vn 0.9310 -0.0055 0.3649
vn 0.3378 -0.0051 -0.9412
vn -0.9218 -0.0056 0.3875
vn -0.3378 -0.0051 -0.9412
vn -0.3521 -0.0052 0.9359
vn -0.9218 -0.0056 -0.3875
vn 0.9550 -0.2966 -0.0000
vn -0.0000 -1.0000 -0.0044
vn -0.0000 -1.0000 0.0045
vn -0.0000 0.2749 0.9615
vn 0.0044 -1.0000 -0.0000
vn -0.9550 -0.2966 -0.0000
vn -0.0050 -1.0000 -0.0000
vn 0.9615 0.2749 -0.0000
vn -0.0000 0.2749 -0.9615
vn -0.9615 0.2749 -0.0000
vn -0.0000 -0.2966 -0.9550
vn -0.0000 -0.2966 0.9550
vt 0.625000 0.500000
vt 0.375000 0.500000
vt 0.625000 0.750000
vt 0.375000 0.750000
vt 0.625000 0.250000
vt 0.375000 0.250000
vt 0.125000 0.500000
vt 0.625000 1.000000
vt 0.625000 0.000000
vt 0.375000 1.000000
vt 0.125000 0.750000
vt 0.375000 0.000000
vt 0.375000 0.375000
vt 0.250000 0.500000
vt 0.625000 0.875000
vt 0.250000 0.750000
vt 0.375000 0.875000
vt 0.625000 0.375000
vt 0.125000 0.625000
vt 0.375000 0.125000
vt 0.625000 0.625000
vt 0.625000 0.125000
vt 0.375000 0.625000
vt 0.250000 0.625000
vt 0.625000 0.875000
vt 0.625000 0.000000
vt 0.625000 1.000000
vt 0.625000 0.625000
vt 0.625000 0.750000
vt 0.625000 0.125000
vt 0.625000 0.250000
vt 0.625000 0.375000
vt 0.625000 0.500000
vt 0.375000 0.000000
vt 0.375000 1.000000
vt 0.125000 0.750000
vt 0.625000 0.000000
vt 0.625000 1.000000
vt 0.875000 0.750000
vt 0.375000 0.250000
vt 0.125000 0.500000
vt 0.625000 0.250000
vt 0.875000 0.500000
vt 0.375000 0.750000
vt 0.625000 0.750000
vt 0.375000 0.500000
vt 0.625000 0.500000
vt 0.625000 0.375000
vt 0.625000 0.500000
vt 0.625000 0.125000
vt 0.625000 0.250000
vt 0.625000 0.625000
vt 0.625000 0.750000
vt 0.625000 0.875000
vt 0.625000 0.000000
vt 0.625000 1.000000
vt 0.625000 0.375000
vt 0.625000 0.500000
vt 0.625000 0.125000
vt 0.625000 0.250000
vt 0.625000 0.625000
vt 0.625000 0.750000
vt 0.625000 0.875000
vt 0.625000 0.000000
vt 0.625000 1.000000
vt 0.375000 0.250000
vt 0.625000 0.750000
vt 0.375000 0.750000
vt 0.625000 0.750000
vt 0.375000 1.000000
vt 0.375000 0.000000
vt 0.375000 0.750000
vt 0.125000 0.750000
vt 0.625000 0.500000
vt 0.375000 0.750000
vt 0.125000 0.750000
vt 0.625000 0.000000
vt 0.375000 0.500000
vt 0.625000 1.000000
vt 0.625000 0.500000
vt 0.375000 0.750000
vt 0.375000 0.250000
vt 0.375000 0.000000
vt 0.375000 1.000000
vt 0.625000 0.750000
vt 0.375000 0.500000
vt 0.125000 0.500000
vt 0.625000 0.750000
vt 0.125000 0.500000
vt 0.375000 0.750000
vt 0.125000 0.750000
vt 0.375000 1.000000
vt 0.375000 0.000000
vt 0.625000 0.500000
vt 0.375000 0.250000
vt 0.625000 0.250000
vt 0.375000 0.500000
vt 0.875000 0.750000
vt 0.125000 0.500000
vt 0.625000 0.750000
vt 0.625000 0.250000
vt 0.625000 0.500000
vt 0.875000 0.500000
vt 0.375000 0.250000
vt 0.625000 0.500000
s 0
usemtl Material
f 7/8/1 10/15/1 18/25/1 19/27/1
f 11/17/2 10/15/2 7/8/2 8/10/2
f 13/20/3 15/22/3 5/5/3 6/6/3
f 17/24/4 16/23/4 4/4/4 11/16/4
f 16/23/5 14/21/5 3/3/5 4/4/5
f 9/13/6 12/18/6 1/1/6 2/2/6
f 6/6/7 5/5/7 12/18/7 9/13/7
f 13/19/4 17/24/4 11/16/4 8/11/4
f 4/4/8 3/3/8 10/15/8 11/17/8
f 1/1/9 12/18/9 24/32/9 25/33/9
f 6/7/4 9/14/4 17/24/4 13/19/4
f 2/2/10 1/1/10 14/21/10 16/23/10
f 9/14/4 2/2/4 16/23/4 17/24/4
f 8/12/11 7/9/11 15/22/11 13/20/11
f 14/21/12 1/1/12 25/33/12 20/28/12
f 12/18/13 5/5/13 23/31/13 24/32/13
f 10/15/14 3/3/14 21/29/14 18/25/14
f 15/22/15 7/9/15 19/26/15 22/30/15
f 5/5/16 15/22/16 22/30/16 23/31/16
f 3/3/17 14/21/17 20/28/17 21/29/17
f 23/31/18 22/30/18 36/50/18 37/51/18
f 26/34/19 27/37/19 29/42/19 28/40/19
f 28/40/20 29/42/20 33/47/20 32/46/20
f 32/46/21 33/47/21 31/45/21 30/44/21
f 30/44/22 31/45/22 27/38/22 26/35/22
f 28/41/4 32/46/4 30/44/4 26/36/4
f 33/47/18 29/43/18 27/39/18 31/45/18
f 38/52/23 35/49/23 43/58/23 46/61/23
f 20/28/18 25/33/18 35/49/18 38/52/18
f 18/25/18 21/29/18 39/53/18 40/54/18
f 25/33/18 24/32/18 34/48/18 35/49/18
f 21/29/18 20/28/18 38/52/18 39/53/18
f 22/30/18 19/26/18 41/55/18 36/50/18
f 24/32/18 23/31/18 37/51/18 34/48/18
f 19/27/18 18/25/18 40/54/18 41/56/18
f 42/57/18 45/60/18 44/59/18 49/64/18 48/63/18 47/62/18 46/61/18 43/58/18
f 40/54/24 39/53/24 47/62/24 48/63/24
f 39/53/25 38/52/25 46/61/25 47/62/25
f 35/49/26 34/48/26 42/57/26 43/58/26
f 36/50/27 41/55/27 49/64/27 44/59/27
f 34/48/28 37/51/28 45/60/28 42/57/28
f 41/56/29 40/54/29 48/63/29 49/65/29
f 37/51/30 36/50/30 44/59/30 45/60/30
usemtl Material.001
f 61/94/31 58/88/31 57/85/31 55/80/31
f 57/86/4 53/74/4 51/69/4 55/81/4
f 56/83/32 65/104/32 61/95/32 60/93/32
f 63/99/33 52/73/33 59/91/33 58/89/33
f 56/83/34 54/77/34 64/101/34 65/104/34
f 65/105/35 63/100/35 58/88/35 61/94/35
f 59/90/36 60/92/36 51/70/36 53/75/36
f 50/66/18 62/96/18 64/102/18 54/78/18
f 52/72/37 56/84/37 60/92/37 59/90/37
f 52/72/38 50/67/38 54/79/38 56/84/38
f 63/99/39 62/97/39 50/68/39 52/73/39
f 65/105/40 64/103/40 62/98/40 63/100/40
f 60/93/41 61/95/41 55/82/41 51/71/41
f 58/89/42 59/91/42 53/76/42 57/87/42
